<?xml version="1.0" encoding="UTF-8"?>
<svg id="Layer_2" data-name="Layer 2" xmlns="http://www.w3.org/2000/svg" viewBox="0 0 237.28 89.67">
  <defs>
    <style>
      .cls-1 {
        fill: #231f20;
      }

      .cls-2 {
        fill: #3a4782;
      }

      .cls-3 {
        stroke: #2b3990;
      }

      .cls-3, .cls-4 {
        stroke-width: .18px;
      }

      .cls-3, .cls-4, .cls-5 {
        fill: none;
      }

      .cls-3, .cls-4, .cls-6 {
        stroke-linecap: round;
        stroke-linejoin: round;
      }

      .cls-7 {
        fill: #fbb040;
      }

      .cls-4 {
        stroke: #00aeef;
      }

      .cls-8 {
        fill: #2b3990;
      }

      .cls-5 {
        stroke: #fbb040;
        stroke-miterlimit: 10;
      }

      .cls-5, .cls-6 {
        stroke-width: .32px;
      }

      .cls-9, .cls-6 {
        fill: #00aeef;
      }

      .cls-10 {
        fill: #262262;
      }

      .cls-11 {
        fill: #27aae1;
      }

      .cls-12 {
        fill: #9e1f63;
      }

      .cls-6 {
        stroke: #2e3192;
      }
    </style>
  </defs>
  <g id="Layer_1-2" data-name="Layer 1">
    <g>
      <g>
        <path class="cls-10" d="M236.6,44.08c0-.16-.03-.31-.03-.31.44-.05,1.3-1.02-.08-1.71-.01-.13-.08-.73-.07-.85.58-.15,1.44-1.26-.03-1.71-1.46-.44-10.28-3.7-10.71-3.82s-.9-.07-1.25.52c-.35.59-.99,1.82-1.13,2.08s-.23.49-.72.29-.99-.38-1.28-.45c-.07-.74-.23-1.46-.28-1.63s-.34-.24-.64-.24-1.54-.05-1.76-.04-.16.32-.13.5.12.44.12.55.08.26-.28.23-.88-.06-1.1-.07-.31-.04-.36-.33-.16-1.23-.18-1.43-.03-.33.19-.39.79-.23.78-.56-.64-.7-1.02-.73.04-.24.17-.29.85-.76.86-1.42.03-1.1.04-1.3.26-.38.17-.74-.7-1.46-1.84-1.54-2.95.01-3.36.09-.82.61-.91,1.37-.05,1.57-.06,1.79.08.68.46.98.8.77.97.9.01.19-.16.23-.31.39-.31.59.09.52.37.64.31.13.4.19.1.07.13.3.09.77.1.93.06.3-.23.31-1.54-.01-1.71-.01-.17-.17-.18-.34-.04-.61-.04-.76-.04-.43-.36-.5-1.13-.02-1.38.08-.32.3-.32.47.01.62,0,.79.07.42-.1.45-.84.11-.98.14-.36-.07-.38-.34-.02-.6-.03-.77.01-.3.22-.36.85-.34.83-.67c-.02-.31-.41-.78-1.03-1.04-.04-.02-.04-.07,0-.09.43-.25.8-.75.8-1.12v-2.26c0-.3-.12-.86-.74-1.12s-1.29-.41-2.13-.43-1.91.19-2.19.28-.52.36-.52.86.03,2.67.02,2.85.1.42.26.56.74.58.93.71c-.26.14-.44.16-.58.2s-.21.39-.19.57.15.38.51.44.42.05.52.1.34.24.34.5v1.33c0,.18.02.38-.35.44s-1.01.29-1.23.33-.8.19-1.2.17-21.16-.94-27.77-1.1c-6.61-.16-23.68-.4-23.68-.4-.97-13.87-10.34-32.17-28.96-32.17-11.37,0-16.93,5.56-19.91,5.8s-5.64-1.61-7.66.24-.89,3.14-.97,4.19-2.34,4.6-14.27,2.74c-11.93-1.85-13.63-4.15-13.62-6.33,0-1.17,1.3-3.28.4-4.88-2.18-3.87-7.98-.77-10.52-1.49s-7.98-2.98-13.83-4.31C23.06-3.37,0,7.97,0,45.27c0,9.46,1.45,44.39,38.99,44.39,12.68,0,15.83-6.69,20.34-6.61,2.82.05,4.03.97,6.05.81s3.39-1.93,3.06-3.55-5.14-9.24,12.17-12.01c8.55-1.37,14.91-.81,14.91,5.32,0,3.06,1.69,3.63,4.11,2.74s3.14-1.77,5.24-1.61,7.34,3.79,18.38,3.79c14.59,0,24.02-12.17,27.57-28.06,10-.97,50.28-3.28,51.25-3.28.48.54,1.18.59,1.83.64s.64.05.91.11c-.08.75-.11,1.61.81,1.77.91.16,1.18.19,1.53.19s.62-.16.59-.59c-.03-.43-.11-.78-.11-.99.89.11.99.11,1.48.11.03.54.03.66,0,.98-.67.2-.95.31-.95.74s.23.78.77.97c-.52.5-1.5,1.38-1.5,2.5s.07,1.48.17,1.73c.11.26.59.67,1.03.75s.79.2,1.38.24c.59.04,1.3.07,1.72.07s1.57-.09,1.79-.47c.21-.38.37-.67.43-1.18s.16-1.19.12-1.55-.46-1.85-2.1-2.3c.67-.4,1.47-.91.06-1.53.04-.38-.04-.42-.02-.73.56.18,1.51.14,2.02.04.08.64.26,1.31,1.11,1.33s1.13-.04,1.55-.08.75-.36.69-.87-.08-.64-.08-.64c.56.02.91-.06,1.19,0,0,.34.09.62.1.84-.44.13-1.13.67-1.07,1.14.05.47.31.71.64.75-.48.27-1.22,1.05-1.28,1.48-.05.43-.05,1.49-.05,1.79s.69,1.16,1.53,1.22,2.45.04,2.94,0c.5-.04,1.14-.58,1.18-1.17s.11-1.59.08-1.95c-.03-.36-.25-1.28-1.44-1.62-.01,0-.01-.02,0-.02.81-.04,2-1.22-.13-1.79-.03-.6-.11-1.21-.11-1.21,0,0,1.75-.34,2.1-.43.08.47.27.95.35,1.22.08.27.46,1.01,1.46.69s10.64-3.44,11.38-3.64c.74-.2,1.81-1.07.42-1.68ZM223.07,44.2c-1.93.89-7.46,1.69-10.28,1.85s-7.58-.48-8.99-.85c0-.24.07-4.55.07-4.55,1.29-.73,3.6-1.57,8.39-1.41,4.8.16,8.79,1.13,10.8,1.73-.08.81-.24,2.46,0,3.22Z"/>
        <path class="cls-10" d="M228.27,35.63c-.28-.1-.64-.26-.52-.69s.79-1.71.89-1.83c.1-.12-.08-.6.06-.75.14-.14.54-.02.83.56s.28,1.09.64,1.37,3.57,2.48,3.97,2.72.44.44.48.77.04.6-.79.24c-.83-.36-5.56-2.4-5.56-2.4Z"/>
        <path class="cls-10" d="M230.17,33.15c.04.16.28.69.34.81.06.12.22.22.46.38s.52.42.69.54.56.4.6-.12.14-.83.2-.99c.06-.16.22-.6-.24-.58-.46.02-.77.04-1.05-.08s-.71-.38-.89-.34c-.18.04-.18.16-.12.38Z"/>
        <path class="cls-10" d="M227.91,49.09c-.32.13-.78.3-.54.73s.51.75.56,1.02,0,.38,0,.54.4.32.51-.03.19-.7.67-.86,1.64-.56,2.18-.78,1.89-1.18,2.66-1.99c.51-.54.13-.83-.59-.51s-5.46,1.88-5.46,1.88Z"/>
        <path class="cls-10" d="M231.33,50.12c-.22.07-.46.32-.64.48-.18.16-.54.54-.95.73s-.99.44-.97.58c.02.14.34.26.7.21.35-.05,2.13-.45,2.34-.5.21-.05.32-.27.26-.46s-.12-.56-.17-.83-.29-.3-.56-.21Z"/>
      </g>
      <rect class="cls-10" x="205.62" y="38.98" width="2.22" height="7.5"/>
      <rect class="cls-10" x="209.37" y="38.98" width="2.22" height="7.5"/>
      <rect class="cls-10" x="214.28" y="38.98" width="2.22" height="7.5"/>
      <rect class="cls-10" x="218.8" y="38.98" width="2.22" height="7.5"/>
      <path class="cls-2" d="M98.76,34.52c3.07-5.88,11.45-15.12,22.82-15.12s22.61,8.46,25.64,17.78c-1.01-4.55-3.51-13.38-17.01-18.62-.08-.48-.2-.9-.89-1.4,9.37,3.23,16.05,10.7,18.73,15.25.2.34.74.13.64-.26-1.24-5.09-4.62-9.97-8.25-14.52-5.04-6.33-11.46-9.39-18.62-9.39-6.75,0-11.1,1.72-14.29,3.35-1.97,1.01-3.53,1.72-5.29,1.86-.29.02-.59.05-.89.04-1.05-.04-2.58-.36-3.55-.4s-1.21.73-1.21,1.05-.04.92-.2,2.18c-.38,2.92-3.5,5.04-11.25,5.04-2,0-4.39.38-6.85,0-8.28-1.29-16.13-2.86-16.12-10,0-1.17,1.17-2.3.16-3.1-.6-.48-1.73-.56-2.94.04-.93.46-4.96.4-6.45.08s-3.18-1.61-7.98-2.98c-4.8-1.37-7.82-1.53-10.8-1.53-8.18,0-15.62,3.28-20.68,9.31-3.14,3.75-9.35,9.88-9.35,32.11,0,9.24,1.72,17.5,4.97,23.88,5.55,10.89,15.61,17.72,29.91,17.72,6.73,0,10.67-2.83,13.64-4.67,2.14-1.32,3.78-1.86,6.62-1.86h.15c.08,0,.17-.01.25,0,1.56.19,4.35,1.8,5.64,1.1s1.34-2.04,1.02-3.01-1.4-2.43-.38-4.84c.32-.76.73-1.38.73-1.38,2.37-3.59,5.62-4.94,13.3-6.17,2.8-.45,5.17-.85,7.24-.85,8.28,0,10.59,2.46,11.19,5.89.48,3.06,1.98,3.18,3.99,2.58s3.59-1.01,6.49-.08,6.81,2.27,14.39,2.27,12.36-3.05,16.47-7.52c3.82-4.15,6.88-8.19,8.03-17.49.03-.2-.14-.38-.35-.37-.57.04-.81.08-1.39.13-1.07,7.58-10.42,20.64-21.39,20.8-14.35.21-22.9-6.32-26.48-19.54l-.09-.33c-.23-.1-1.24.14-2.29.81.28-.67.58-1.11,1.23-1.61,0-.08.02-.22-.02-.4-.18.14-1.21.89-2.06,1.16.04-.3.28-.71.85-1.56-.36.24-1.25.77-1.41.93s-.48.44-.56,0c0-1.61,1.33-1.85,1.65-1.73-.4-.28-1.01-.44-2.3,0,.81-1.93,1.69-2.06,2.22-2.01s1.13.56,1.95,1.21c-.16-.78-.37-2.37-.54-3.79-.69-1.21-1.85-2.74-2.14-3.63s.24-1.57,1.01-1.81c.48-.13,1.05-.27,1.63-.4.66-2.24,1.47-4.15,1.47-4.15Z"/>
      <path class="cls-6" d="M115.97,57.68c1.17-4.27,1.98-4.75,1.98-4.75,0,0-.26-.33-.52-.69-.48.48-.83.73-1.23.95.34,1.07.3,2.78-.22,4.49Z"/>
      <g>
        <path class="cls-6" d="M118.35,33.5c-1.07,1.07-9.16,11.02-11.69,14.24s-4.39,7.94-2.38,10.48c2.13,2.69,5,1.77,5.72,1.65.6-1.33.78-2.26.9-3.1-1.72.78-4.32.67-4.53-1.29-.23-2.12.69-4.04,2.22-6.34s10.96-12.89,11.69-13.81c-.64-.69-1.65-1.6-1.93-1.83Z"/>
        <polygon class="cls-6" points="119.6 45.73 121.35 43.83 118.5 40.89 116.74 42.67 119.6 45.73"/>
        <path class="cls-6" d="M118.5,40.89s1.36-1.38,1.75-1.77c.19-.19,1.35-1.43,1.88-1.99.21.22,1.06,1.15,1.41,1.55-1.13,1.02-3.48,3.02-3.91,3.36l-1.12-1.16Z"/>
        <path class="cls-6" d="M121.35,43.83s3.33,3.29,4.46,4.48c.95-1.05,1.63-1.85,1.93-2.18-1.07-.87-3.87-3.5-4.41-4.09l-1.98,1.78Z"/>
        <path class="cls-6" d="M121.25,56.41c-.83.99-3.33,2.88-4.51,3.44s-2.53,1.21-4.43,1.34c-1.65.12-2.65-.57-2.9-1.19h-.03c-.82.14-1.53.15-2.01.07-.18.87.52,3.37,2.55,3.96,2.47.73,3.44.34,4.37,0s3.39-1.85,4.53-2.68c1.15-.83,3.53-2.96,4.01-3.55-.28-.27-.92-.86-1.56-1.44v.04Z"/>
        <path class="cls-6" d="M126.54,51.48c2.18-2.07,8.33-9.35,10.1-11.53s4.25-4.86,1.75-8.22-9.97,2.15-11.34,3.79c0,0-.83-1.24-1.42-1.83,1.42-1.18,9.15-8.36,14-3.03,3.14,3.46.21,8.3-.73,9.48s-5.21,6.8-7.82,9.59-4.22,4.73-4.86,5.48c-.89-.62-1.37-1.07-1.85-1.56,2.39-2.39,2.18-2.18,2.18-2.18Z"/>
        <path class="cls-6" d="M108.78,31.08c.23-1.55,1.02-2.32,2.11-2.97,3.18-1.77,8.46,2.66,10.36,4.51,1.46,1.43,5.67,6,8.07,8.63l1.52,1.69,1.66-1.77s-2.99-3.15-3.75-3.92-1.32-1.22-1.69-1.75-1.05-1.45-1.42-1.83c-.37-.38-1.42-1.62-2.66-2.88-2.69-2.72-10.53-7.9-14.01-4.62-3.49,3.29-1.77,7.8,3.45,14.41.35-.43.6-.73.83-1.02-1.5-1.92-4.61-7.27-4.45-8.51Z"/>
        <path class="cls-6" d="M122.09,30c1.4-1.44,7.34-7.22,10.85-5.57,2.75,1.3,2.64,3.23,2.6,4.29-.95.04-1.45.09-2.75.44.09-.7-.53-2.69-2.89-1.73-2.36.97-4.81,3.47-5.88,4.48-.22-.24-1.4-1.48-1.93-1.92Z"/>
        <path class="cls-6" d="M135.49,44.5c-.35.44-1.07,1.34-1.68,2.08.85.87,4.4,5.17,4.99,6.19s.99,1.8.48,2.45-1.05.97-2.9.16c.54.78,1.05,1.86,1.21,2.66,2.55.86,3.68.21,4.27-1s.86-2.66,0-3.98-1.69-2.61-2.81-4.17-3.56-4.4-3.56-4.4Z"/>
        <path class="cls-6" d="M112.98,46.81c1.58,1.74,3.62,4.42,4.45,5.43s1.87,2.23,2.18,2.64l1.65,1.53s1.11.98,1.57,1.4c5.74,5.15,10.96,6.45,13.96,4.51,1.33-.86,1.11-3.3.81-4.27s-.24-1.16-1.21-2.66-4.02-5.76-4.51-6.51c-.67.74-1.01,1.11-1.38,1.51,2.51,2.2,6.64,8.06,5.17,9.89s-5.83.07-9.41-2.59-10.01-9.39-12.19-12.11c-.6.69-1.08,1.24-1.08,1.24Z"/>
      </g>
      <path class="cls-9" d="M107.13,30.67c0-.62-.09-1.85.72-3.12-2.56,1.16-6.42,5.75-3.1,10.33,2.45,3.37,3.57,4.29,5.16,5.8.52-.64.67-.83.91-1.13-2.34-2.63-4.86-6.09-5.1-7.71s-.15-3.49,1.42-4.18Z"/>
      <path class="cls-12" d="M60.18,54.72l.81.52v3.14c-1.17.2-2.34.28-5.36,1.37,1.09.48,2.1,1.93,2.1,3.66,0,1.49-.97,4.2-3.65,4.2-2.05,0-4.69-1.95-4.69-4.58,0-3.71,1.2-6.1,10.8-8.32Z"/>
      <path class="cls-12" d="M75.3,55.73c.46,1.02,2.04,3.14,3.25,4.03.97.43,2.31.7,3.9.7,2.45,0,5.59-1.96,5.59-5.05,0-2.53-1.4-2.9-2.42-2.9s-2.63,1.02-2.63,2.63,1.64,1.75,2.36,1.72c-.16.54-1.29,1.99-2.63,1.8s-5.03-1.5-7.42-2.93Z"/>
      <path class="cls-12" d="M61.4,31.65s-.35-2.69-.48-3.95c-.51.59-1.91,1.61-5.13-.51,2.63-.81,2.85-6.99-2.07-6.99-3.82,0-4.41,3.33-4.19,4.7s1.3,3.53,3.52,5.24c1.99,1.53,3.92,1.67,8.36,1.5Z"/>
      <g>
        <circle class="cls-1" cx="40.43" cy="5.93" r="1.59"/>
        <circle class="cls-1" cx="37.27" cy="5.54" r="1.6"/>
        <circle class="cls-1" cx="34.09" cy="5.43" r="1.58"/>
        <circle class="cls-1" cx="30.91" cy="5.63" r="1.61"/>
        <circle class="cls-1" cx="27.69" cy="6.27" r="1.67"/>
        <circle class="cls-1" cx="24.48" cy="7.36" r="1.74"/>
        <circle class="cls-1" cx="21.29" cy="8.97" r="1.83"/>
        <circle class="cls-1" cx="18.27" cy="11.1" r="1.89"/>
        <circle class="cls-1" cx="15.52" cy="13.7" r="1.9"/>
        <circle class="cls-1" cx="13.08" cy="16.68" r="1.95"/>
        <circle class="cls-1" cx="10.93" cy="20.05" r="2.04"/>
        <circle class="cls-1" cx="9.25" cy="23.79" r="2.06"/>
        <circle class="cls-1" cx="7.99" cy="27.7" r="2.04"/>
        <circle class="cls-1" cx="7.13" cy="31.66" r="2.03"/>
        <circle class="cls-1" cx="6.61" cy="35.67" r="2.03"/>
        <circle class="cls-1" cx="6.3" cy="39.72" r="2.05"/>
        <circle class="cls-1" cx="6.24" cy="43.88" r="2.12"/>
        <circle class="cls-1" cx="6.36" cy="48.16" r="2.19"/>
        <circle class="cls-1" cx="6.74" cy="52.56" r="2.23"/>
        <circle class="cls-1" cx="7.43" cy="57" r="2.26"/>
        <circle class="cls-1" cx="8.48" cy="61.39" r="2.26"/>
        <circle class="cls-1" cx="9.92" cy="65.63" r="2.22"/>
        <circle class="cls-1" cx="11.74" cy="69.58" r="2.13"/>
        <circle class="cls-1" cx="13.93" cy="73.12" r="2.03"/>
        <circle class="cls-1" cx="16.38" cy="76.18" r="1.89"/>
        <circle class="cls-1" cx="18.99" cy="78.73" r="1.76"/>
        <circle class="cls-1" cx="21.67" cy="80.75" r="1.62"/>
        <circle class="cls-1" cx="24.35" cy="82.34" r="1.5"/>
        <circle class="cls-1" cx="26.99" cy="83.53" r="1.4"/>
        <circle class="cls-1" cx="29.55" cy="84.4" r="1.31"/>
        <circle class="cls-1" cx="32.07" cy="85" r="1.27"/>
        <circle class="cls-1" cx="37.17" cy="85.5" r="1.33"/>
        <circle class="cls-1" cx="39.89" cy="85.45" r="1.4"/>
        <circle class="cls-1" cx="42.73" cy="85.08" r="1.46"/>
        <circle class="cls-1" cx="45.6" cy="84.23" r="1.52"/>
        <circle class="cls-1" cx="48.37" cy="83.01" r="1.51"/>
        <circle class="cls-1" cx="34.58" cy="85.37" r="1.27"/>
        <circle class="cls-1" cx="50.89" cy="81.74" r="1.32"/>
        <circle class="cls-1" cx="53.09" cy="80.63" r="1.14"/>
        <circle class="cls-1" cx="55.17" cy="79.77" r="1.11"/>
        <circle class="cls-1" cx="57.47" cy="79.15" r="1.27"/>
        <circle class="cls-1" cx="60.1" cy="79.03" r="1.37"/>
        <circle class="cls-1" cx="64.32" cy="75.39" r="1.2"/>
        <circle class="cls-1" cx="64.98" cy="73.26" r="1.03"/>
        <circle class="cls-1" cx="65.96" cy="71.5" r=".99"/>
        <circle class="cls-1" cx="67.2" cy="70.04" r=".92"/>
        <circle class="cls-1" cx="68.56" cy="68.9" r=".85"/>
        <circle class="cls-1" cx="71.43" cy="67.31" r=".82"/>
        <circle class="cls-1" cx="73.02" cy="66.64" r=".9"/>
        <circle class="cls-1" cx="74.84" cy="66.02" r="1.02"/>
        <circle class="cls-1" cx="76.91" cy="65.44" r="1.13"/>
        <circle class="cls-1" cx="79.14" cy="65.02" r="1.14"/>
        <circle class="cls-1" cx="84.96" cy="64.14" r="1.18"/>
        <circle class="cls-1" cx="87.48" cy="63.85" r="1.36"/>
        <circle class="cls-1" cx="90.27" cy="63.9" r="1.43"/>
        <circle class="cls-1" cx="93.04" cy="64.38" r="1.38"/>
        <circle class="cls-1" cx="95.68" cy="65.25" r="1.4"/>
        <circle class="cls-1" cx="99.68" cy="69.69" r="1.57"/>
        <circle class="cls-1" cx="101.29" cy="72.35" r="1.57"/>
        <circle class="cls-1" cx="98.19" cy="66.89" r="1.6"/>
        <circle class="cls-1" cx="81.94" cy="63.83" r="1.88"/>
        <circle class="cls-1" cx="69.97" cy="68.03" r=".81"/>
        <circle class="cls-1" cx="63.92" cy="79.01" r="2.45"/>
        <circle class="cls-1" cx="43.52" cy="6.61" r="1.57"/>
        <circle class="cls-1" cx="46.54" cy="7.52" r="1.58"/>
        <circle class="cls-1" cx="49.5" cy="8.73" r="1.61"/>
        <circle class="cls-1" cx="52.44" cy="9.81" r="1.53"/>
        <circle class="cls-1" cx="55.43" cy="10.11" r="1.49"/>
        <circle class="cls-1" cx="57.83" cy="9.56" r=".94"/>
        <circle class="cls-1" cx="60.41" cy="13.02" r="1.91"/>
        <circle class="cls-1" cx="60.65" cy="9.53" r="1.59"/>
        <circle class="cls-1" cx="61.98" cy="15.9" r="1.37"/>
        <circle class="cls-1" cx="63.76" cy="17.61" r="1.1"/>
        <circle class="cls-1" cx="65.49" cy="18.84" r="1.03"/>
        <circle class="cls-1" cx="67.34" cy="19.83" r="1.07"/>
        <circle class="cls-1" cx="69.42" cy="20.73" r="1.21"/>
        <circle class="cls-1" cx="71.87" cy="21.55" r="1.37"/>
        <circle class="cls-1" cx="74.6" cy="22.18" r="1.44"/>
        <circle class="cls-1" cx="77.38" cy="22.59" r="1.37"/>
        <circle class="cls-1" cx="80.01" cy="22.77" r="1.27"/>
        <circle class="cls-1" cx="86.54" cy="22.6" r="1.27"/>
        <circle class="cls-1" cx="88.96" cy="22.27" r="1.14"/>
        <circle class="cls-1" cx="91.22" cy="21.91" r="1.14"/>
        <circle class="cls-1" cx="93.4" cy="21.22" r="1.14"/>
        <circle class="cls-1" cx="95.44" cy="20.11" r="1.18"/>
        <circle class="cls-1" cx="96.99" cy="18.29" r="1.2"/>
        <circle class="cls-1" cx="97.4" cy="16.14" r=".99"/>
        <circle class="cls-1" cx="99.67" cy="14.3" r=".99"/>
        <circle class="cls-1" cx="101.55" cy="14.38" r=".89"/>
        <circle class="cls-1" cx="103.34" cy="14.2" r=".89"/>
        <circle class="cls-1" cx="105.05" cy="13.7" r=".89"/>
        <circle class="cls-1" cx="106.69" cy="13" r=".89"/>
        <circle class="cls-1" cx="108.28" cy="12.2" r=".89"/>
        <circle class="cls-1" cx="109.9" cy="11.45" r=".89"/>
        <circle class="cls-1" cx="111.56" cy="10.8" r=".89"/>
        <circle class="cls-1" cx="113.26" cy="10.25" r=".89"/>
        <circle class="cls-1" cx="114.99" cy="9.82" r=".89"/>
        <circle class="cls-1" cx="116.74" cy="9.5" r=".89"/>
        <circle class="cls-1" cx="118.52" cy="9.28" r=".89"/>
        <circle class="cls-1" cx="120.3" cy="9.16" r=".89"/>
        <circle class="cls-1" cx="122.09" cy="9.14" r=".89"/>
        <circle class="cls-1" cx="123.87" cy="9.22" r=".89"/>
        <circle class="cls-1" cx="125.63" cy="9.45" r=".89"/>
        <circle class="cls-1" cx="127.38" cy="9.82" r=".89"/>
        <circle class="cls-1" cx="129.09" cy="10.34" r=".89"/>
        <circle class="cls-1" cx="130.74" cy="11" r=".89"/>
        <circle class="cls-1" cx="132.34" cy="11.78" r=".89"/>
        <circle class="cls-1" cx="133.85" cy="12.71" r=".89"/>
        <circle class="cls-1" cx="135.29" cy="13.75" r=".89"/>
        <circle class="cls-1" cx="136.66" cy="14.89" r=".89"/>
        <circle class="cls-1" cx="137.93" cy="16.13" r=".89"/>
        <circle class="cls-1" cx="139.12" cy="17.45" r=".89"/>
        <circle class="cls-1" cx="140.23" cy="18.72" r=".79"/>
        <circle class="cls-1" cx="141.22" cy="19.85" r=".71"/>
        <circle class="cls-1" cx="142.1" cy="20.9" r=".65"/>
        <circle class="cls-1" cx="142.88" cy="21.91" r=".62"/>
        <circle class="cls-1" cx="143.58" cy="22.84" r=".55"/>
        <circle class="cls-1" cx="144.23" cy="23.67" r=".5"/>
        <circle class="cls-1" cx="144.76" cy="24.48" r=".47"/>
        <circle class="cls-1" cx="145.27" cy="25.21" r=".42"/>
        <circle class="cls-1" cx="145.71" cy="25.9" r=".39"/>
        <circle class="cls-1" cx="146.08" cy="26.58" r=".38"/>
        <circle class="cls-1" cx="146.44" cy="27.25" r=".38"/>
        <circle class="cls-1" cx="146.77" cy="27.94" r=".38"/>
        <circle class="cls-1" cx="147.08" cy="28.63" r=".38"/>
        <circle class="cls-1" cx="147.37" cy="29.34" r=".38"/>
        <circle class="cls-1" cx="147.65" cy="30.05" r=".38"/>
        <circle class="cls-1" cx="147.9" cy="30.77" r=".38"/>
        <circle class="cls-1" cx="148.12" cy="31.5" r=".38"/>
        <circle class="cls-1" cx="148.33" cy="32.21" r=".36"/>
        <circle class="cls-1" cx="97.64" cy="14.13" r="1.05"/>
        <circle class="cls-1" cx="83.29" cy="23.55" r="2.12"/>
        <circle class="cls-1" cx="103.78" cy="72.36" r=".91"/>
        <circle class="cls-1" cx="109.91" cy="72.95" r=".91"/>
        <circle class="cls-1" cx="111.62" cy="73.51" r=".88"/>
        <circle class="cls-1" cx="113.19" cy="74.03" r=".77"/>
        <circle class="cls-1" cx="114.7" cy="74.35" r=".77"/>
        <circle class="cls-1" cx="116.17" cy="74.64" r=".73"/>
        <circle class="cls-1" cx="117.62" cy="74.84" r=".73"/>
        <circle class="cls-1" cx="119.08" cy="74.97" r=".73"/>
        <circle class="cls-1" cx="120.54" cy="75.06" r=".73"/>
        <circle class="cls-1" cx="121.99" cy="75.1" r=".73"/>
        <circle class="cls-1" cx="123.45" cy="75.12" r=".73"/>
        <circle class="cls-1" cx="124.91" cy="75.08" r=".73"/>
        <circle class="cls-1" cx="126.36" cy="74.94" r=".73"/>
        <circle class="cls-1" cx="127.81" cy="74.72" r=".73"/>
        <circle class="cls-1" cx="129.23" cy="74.39" r=".73"/>
        <circle class="cls-1" cx="130.63" cy="73.95" r=".73"/>
        <circle class="cls-1" cx="131.98" cy="73.41" r=".73"/>
        <circle class="cls-1" cx="133.26" cy="72.78" r=".7"/>
        <circle class="cls-1" cx="134.44" cy="72.11" r=".66"/>
        <circle class="cls-1" cx="135.51" cy="71.39" r=".63"/>
        <circle class="cls-1" cx="136.49" cy="70.67" r=".58"/>
        <circle class="cls-1" cx="137.35" cy="69.94" r=".55"/>
        <circle class="cls-1" cx="138.15" cy="69.22" r=".53"/>
        <circle class="cls-1" cx="138.89" cy="68.51" r=".5"/>
        <circle class="cls-1" cx="139.56" cy="67.81" r=".48"/>
        <circle class="cls-1" cx="140.21" cy="67.15" r=".45"/>
        <circle class="cls-1" cx="140.8" cy="66.49" r=".44"/>
        <circle class="cls-1" cx="141.36" cy="65.83" r=".43"/>
        <circle class="cls-1" cx="141.9" cy="65.18" r=".42"/>
        <circle class="cls-1" cx="142.4" cy="64.54" r=".4"/>
        <circle class="cls-1" cx="142.87" cy="63.91" r=".39"/>
        <circle class="cls-1" cx="143.3" cy="63.28" r=".38"/>
        <circle class="cls-1" cx="143.7" cy="62.67" r=".36"/>
        <circle class="cls-1" cx="144.07" cy="62.06" r=".35"/>
        <circle class="cls-1" cx="144.41" cy="61.47" r=".33"/>
        <circle class="cls-1" cx="144.71" cy="60.88" r=".33"/>
        <circle class="cls-1" cx="144.98" cy="60.28" r=".33"/>
        <circle class="cls-1" cx="145.25" cy="59.67" r=".33"/>
        <circle class="cls-1" cx="145.5" cy="59.05" r=".33"/>
        <circle class="cls-1" cx="145.73" cy="58.44" r=".33"/>
        <circle class="cls-1" cx="145.94" cy="57.81" r=".33"/>
        <circle class="cls-1" cx="146.14" cy="57.18" r=".33"/>
        <circle class="cls-1" cx="146.33" cy="56.55" r=".33"/>
        <circle class="cls-1" cx="146.5" cy="55.91" r=".33"/>
        <circle class="cls-1" cx="146.66" cy="55.27" r=".33"/>
        <circle class="cls-1" cx="146.8" cy="54.62" r=".33"/>
        <circle class="cls-1" cx="146.94" cy="53.98" r=".33"/>
        <circle class="cls-1" cx="147.06" cy="53.33" r=".33"/>
        <circle class="cls-1" cx="147.17" cy="52.68" r=".33"/>
        <circle class="cls-1" cx="147.27" cy="52.03" r=".33"/>
        <circle class="cls-1" cx="147.38" cy="51.38" r=".33"/>
        <circle class="cls-1" cx="147.47" cy="50.76" r=".3"/>
        <circle class="cls-1" cx="105.61" cy="72.1" r=".94"/>
        <circle class="cls-1" cx="107.9" cy="71.93" r="1.35"/>
      </g>
      <path class="cls-9" d="M115.08,44.4c.61-.65,1.19-1.26,1.43-1.5.06.85,0,2.6,0,3.2-.49-.59-1.43-1.7-1.43-1.7Z"/>
      <path class="cls-9" d="M82.14,25.9c-.24,1.53-.38,2.76-1.97,6.27-.23.5-.55,1.39-.17,2.53.12-.16.23-.21.36-.26-.05-.47-.01-.86-.01-1.03s.47-1.03.58-1.38c.02.28.03.52.08.66.01.03.01.06,0,.1-.21.43-.37,1.16-.35,1.44.12.03.21.01.26.01.12-.43.48-1.83.82-2.26.09.19.12.28.14.34,0,.02,0,.04,0,.06-.16.31-.3.79-.48,1.49.2-.24.86-1.03,1.25-1.41.16.05.23.09.23.09-.42.48-1.28,1.73-1.44,1.95.09.07.15.19.15.19.12-.11.79-1,1.18-1.45.02.11.05.21.05.21,0,0-.66,1.01-.85,1.24.52-.44,1.13-1.06,1.61-1.49s2.35-2.07,3.32-2.63,1.32-.71,1.42-1.09c.1-.38.5-3.24,2.96-4.31-1.11.22-3.1.93-6.19.16-.6.64-1.8,1.07-2.95.56Z"/>
      <polygon class="cls-1" points="110.29 50.92 109.81 50.93 110.07 50.46 110.29 50.92"/>
      <path class="cls-1" d="M116.3,50.82h-.55c-.07-.37-.18-.89-.18-.89l.73.89Z"/>
      <g>
        <path class="cls-9" d="M49.49,30.05c3.6,3.75,9.4,5.24,15.45,4.07-3.95,7.78-4.6,12.37-4.92,18.38-1.85.2-3.67.56-5.2.97,0-8.79-1.88-18.66-5.33-23.42Z"/>
        <path class="cls-9" d="M47.46,28.13c-.38.43-1.13,0-2.1-.91s-4.68-3.33-6.29-5.27-8.76-8.87-15.32-3.55-3.65,10.1-2.96,12.31,3.33,6.11,3.76,16.45c.21,5.11.21,8.6-.59,15.16s.97,9.14,2.1,10.05,4.68,2.74,8.65.54,9.84-6.66,12.74-10.43c.81,2.47,2.26,5.97,4.78,8.49,2.53,2.53,7.23,5.21,8.75,5.86s.79,1.13,0,.97-1.76-.26-3.43.03-7.15,2.71-10.1,3.95-4.51,2.42-11.13,2.42c-8.16,0-28-6.19-28-42.43C8.33,14.96,24.35,7.01,33.91,7.01c6.56,0,11.39,1.61,14.3,2.79s5.03,2.26,6.97,1.93,2.66-1.72,3.45-1.16.22,1.61-.74,2.5-2.66,2.5-5,3.95-4.47,2.6-5.32,5.16c-.67,2-.64,3.55-.24,4.27s.47,1.2.13,1.67Z"/>
        <path class="cls-9" d="M98.07,51.53c-.23-.1-1.24.14-2.29.81.28-.67.58-1.11,1.23-1.61,0-.08.02-.22-.02-.4-.18.14-1.21.89-2.06,1.16.04-.3.28-.71.85-1.56-.36.24-1.25.77-1.41.93s-.48.44-.56,0c0-1.61,1.33-1.85,1.65-1.73-.4-.28-1.01-.44-2.3,0,.81-1.93,1.69-2.06,2.22-2.01s1.13.56,1.95,1.21c-.16-.78-.37-2.37-.54-3.79-.69-1.21-1.85-2.74-2.14-3.63s.24-1.57,1.01-1.81c.48-.13,1.05-.27,1.63-.4,0,0,.95-2.91,1.47-4.15-1.13-2.34-2.66-4.88-6.57-4.88s-6.01,1.61-7.7,3.39-3.35,3.02-4.43,2.3-.89-2.18-.08-3.91.97-2.35,1.45-3.72.89-3.62-1.53-3.66-6.15-.08-10.08-1.81c-4.6-2.03-7.09-3.88-9.35-5.87-.78-.59-1.18-.62-1.53-.32s-.46.75,0,1.8,3.74,9.37,4.84,13.58c.06.23.28.38.51.36,1.53-.12,4.3-.41,5.57-.51.17-.01.3.16.22.32-1.22,2.63-5.34,10.78-5.62,11.42-.3.67-.56,1.11-.59,1.82s-.13,2.7-.13,3.05.32,1.42.35,1.85c.04.7.03,2.12,0,3.33s.03-.13-.03,3.65-1.06,15.67-1.37,17.36c-.4,2.18-.03,2.39.75.21s2.02-4.86,6.21-7.01,7.09-3.27,9.92-3.44c.46-.03.3-.38-.54-1.16s-5.29-5.21-5.29-8.95c0-5,2.58-12.93,8.68-12.93,6.96,0,8.22,6.21,8.22,10.35s-2.66,8.09-4.25,9.67-2.1,1.72-2.47,1.88-.38.67.21.46,4.17-1.24,7.5-.51,3.92.97,4.78,1.4.99.62,1.24.4.13-.56-.3-1.29-1.37-2.77-1.05-5.11.31-4.88,1.84-6.21c-.03-.11-.06-.22-.09-.32h0Z"/>
        <g>
          <path class="cls-9" d="M98.76,52.12l1.21,3.17s.56-2.53.75-3.17c-.81-.32-1.21-.46-1.21-.46-.24.32-.46.46-.75.46Z"/>
          <path class="cls-9" d="M101.07,53.04l-.62,3.12,2.15.46s-1.29-2.94-1.53-3.57Z"/>
          <path class="cls-9" d="M100.72,56.77l2.15.45s-.32,2.28-.38,2.9c-.64-1-1.32-2.49-1.77-3.35Z"/>
          <path class="cls-9" d="M103.25,57.92s-.18,2.22-.24,2.84c.83.26,1.85.35,2.24.44-.42-.64-1.55-2.23-2-3.28Z"/>
          <path class="cls-9" d="M103.43,61.55c1.13.24,2.06.4,2.57.46.06.87.16,2.08.2,2.72-.85-.73-2.13-2.32-2.77-3.18Z"/>
          <path class="cls-9" d="M106.7,63.02s.1,1.7.16,2.27c.68.1,1.86.02,2.26,0-1.05-.73-2.13-1.95-2.42-2.27Z"/>
          <path class="cls-9" d="M107.59,65.84c1.49.06,2.16.04,2.6,0,.36.62.95,2.06,1.33,2.64-1.51-.77-2.96-1.84-3.93-2.64Z"/>
          <path class="cls-9" d="M111.62,66.89c.52,1.09.88,1.68,1.36,2.19.94-.13,1.98-.33,2.49-.48-1.42-.43-3.27-1.35-3.85-1.71Z"/>
          <path class="cls-9" d="M114.23,69.54c.84-.11,1.94-.35,2.66-.56.56.51,1.29,1.18,1.74,1.5-1.26-.19-3.09-.52-4.41-.94Z"/>
          <path class="cls-9" d="M118.37,69.27c1.59.3,3.13.3,3.75.3-1.31.91-1.88,1.21-1.88,1.21-.59-.43-1.42-1.05-1.88-1.51Z"/>
          <path class="cls-9" d="M121.9,70.67c.87-.52,1.59-.96,1.98-1.24,1.53.73,2.04.89,2.44,1.05-1.57.32-3.71.23-4.41.19Z"/>
          <path class="cls-9" d="M125.28,69.43s1.99.73,2.45.91c.86-.91,1.18-1.32,1.56-1.75-1.05.4-2.93.81-4,.83Z"/>
          <path class="cls-9" d="M130.44,68.03c-.59.81-1.13,1.5-1.34,1.88,1.75-.81,2.71-1.21,3.36-1.53-1.02-.16-1.61-.27-2.02-.35Z"/>
          <path class="cls-9" d="M131.57,67.58c1.21.19,1.69.24,1.96.24.43-.67.73-1.21.99-1.83-.99.7-2.42,1.48-2.96,1.59Z"/>
          <path class="cls-9" d="M134.63,66.96s.64-1.32.86-1.88c1.21-.24,1.5-.32,1.88-.46-.78.81-2.15,1.96-2.74,2.34Z"/>
          <path class="cls-9" d="M136.57,64.33s1.31-.32,1.75-.44c.18-.67.36-1.45.46-1.98-.58.81-1.73,2.04-2.22,2.42Z"/>
          <path class="cls-9" d="M139.13,62.82s.34-1.37.44-2.02c.83-.36,1.45-.58,1.79-.81-.73,1.09-1.65,2.3-2.24,2.82Z"/>
          <path class="cls-9" d="M142.03,59.13s.14-1.45.14-1.89c-.32.54-.6.99-1.05,1.11-.3.5-.73,1.23-1.11,1.69.12-.04,2.02-.91,2.02-.91Z"/>
          <path class="cls-9" d="M142.53,55.99v1.93s1.07-1.65,1.47-2.82c-.73.48-1.05.67-1.47.89Z"/>
          <path class="cls-9" d="M142.78,55.24s1.25-.6,1.67-.89c-.14-1.13-.3-1.74-.38-2.21-.34.94-.87,2.39-1.29,3.09Z"/>
          <path class="cls-9" d="M144.68,53.33s-.32-1.56-.4-2.02c.67-.46.91-.78,1.26-.99-.19.89-.48,2.04-.86,3.01Z"/>
          <path class="cls-9" d="M146.04,37.18l-2.1.24s1.17-1.53,1.37-2.42c.4.73.69,1.73.73,2.18Z"/>
          <path class="cls-9" d="M143.62,36.5c.6-1.01.73-1.53.97-2.18-1.49-.73-1.69-.81-2.26-1.09.81,1.53,1.21,2.42,1.29,3.27Z"/>
          <path class="cls-9" d="M144.15,33.11s-1.61-.73-2.34-.97c-.04-1.41-.08-2.38-.12-2.7,1.05,1.37,1.85,2.46,2.46,3.67Z"/>
          <path class="cls-9" d="M140.96,30.98s-.08-1.77-.16-2.46c-.93-.28-1.73-.36-2.54-.48.64.56,2.14,2.1,2.7,2.94Z"/>
          <path class="cls-9" d="M140.03,27.67c-1.41-.32-2.14-.4-2.78-.4-.64-1.21-.85-1.81-1.21-2.58,1.89,1.21,2.62,1.81,3.99,2.98Z"/>
          <path class="cls-9" d="M135.92,26.26s-.81-1.93-1.13-2.62c-1.21-.08-3.14.08-3.51.12,2.5-.08,3.83,1.37,4.64,2.5Z"/>
          <path class="cls-9" d="M133.58,22.95s-2.78.12-3.51.16c-.56-.73-1.09-1.49-1.77-2.18,2.18.6,3.75,1.25,5.28,2.02Z"/>
          <path class="cls-9" d="M128.3,22.47c-.64-.85-1.01-1.33-1.45-1.85-1.25.73-1.81,1.05-2.66,1.45,1.37,0,3.1.28,4.11.4Z"/>
          <path class="cls-9" d="M125.44,20.37s-2.18,1.09-2.9,1.65c-1.01-.77-1.57-1.29-2.74-1.93,2.22-.16,4.03.04,5.64.28Z"/>
          <path class="cls-9" d="M121.21,22.15s-2.34-1.65-2.86-2.02c-1.17,1.57-1.45,1.93-2.02,2.54,1.61-.32,3.39-.73,4.88-.52Z"/>
          <path class="cls-9" d="M116.94,20.58s-1.41,1.93-1.85,2.66c-.97-.36-2.02-.85-2.78-1.05,1.69-.77,3.55-1.33,4.64-1.61Z"/>
          <path class="cls-9" d="M113.83,23.44s-1.69-.48-2.58-.81c-.36.85-.81,1.65-1.05,2.34,1.57-.81,2.14-1.05,3.63-1.53Z"/>
          <path class="cls-9" d="M110.25,23.16c-.69,1.49-.89,2.02-1.01,2.34-1.13.08-1.98.12-2.42.2.97-.77,2.1-1.69,3.43-2.54Z"/>
          <path class="cls-9" d="M107.77,26.98c-.32.17-1.31.86-2.68,2.11.16-.56.28-1.05.73-2.62.52-.16,2.74-.41,2.74-.41-.28.28-.59.69-.79.93Z"/>
          <path class="cls-9" d="M104.99,27.27s-.59,2.32-.69,2.81c-.78.27-1.71.34-2.31.6.78-1.06,2.18-2.61,3-3.41Z"/>
          <path class="cls-9" d="M103.49,30.83c-.74.98-1.56,2.38-1.81,3s-.27.73-.35.98c-.24-1.06.04-2.93.07-3.32.85-.4,2.1-.66,2.1-.66Z"/>
          <path class="cls-9" d="M100.69,32.43c-.08,1.15.06,2.34.16,3.06-.52.3-1.77,1.09-2.44,1.59.34-1.11,1.58-3.72,2.28-4.66Z"/>
          <path class="cls-9" d="M98.21,37.73s2.18-1.29,2.34-1.39c-.38.79-.79,1.53-1.49,1.63-.71.1-.96.17-.96.17l.11-.41Z"/>
        </g>
      </g>
      <g>
        <path class="cls-9" d="M116.19,53.19c.34,1.07.3,2.78-.22,4.49h0c-.28.38-.97,1.49-3,1.55-1.01.48-1.98.75-2.96.64h0c.6-1.33.78-2.25.9-3.1.12-.73.21-1.72.16-2.66-.13-.97-.36-2.43-.99-3.65.77-1.19,2.06-2.7,2.9-3.65.27.3,1.5,1.8,2.62,3.18.21,1.22.37,2.06.6,3.2Z"/>
        <path class="cls-11" d="M105.6,65.2c-1.42.74-2.73,1.73-3.3,2.27s-1.16,1.75-.67,2.5,1.83,1.24,2.88,1.05,3.84-1.49,5.59-2.63c-2.76-1.58-3.27-2.13-4.49-3.19Z"/>
        <path class="cls-11" d="M108.43,63.76c.19-.11.23-.12.39-.32.19.16.6.52,1.73.76s1.88.31,2.47.19,1.27-.36,1.65-.54c-1.03,1.19-1.91,2.28-2.36,2.64-.67-.36-2.46-1.37-3.89-2.73Z"/>
      </g>
      <path class="cls-7" d="M24.15,60.77c1.25-8.94,6.14-13.31,9.35-15.14.32-.18.28-.65-.06-.78-6.17-2.46-8.76-6.27-10.73-9.18,1.35,4.86,1.83,8.6,1.83,11.06,0,3.01.51,7.2-.39,14.04Z"/>
      <g>
        <path class="cls-8" d="M24.54,39.78l.45,2.6h2.36s-1.81-1.15-2.81-2.6Z"/>
        <path class="cls-8" d="M25.6,50.79s1.81-1.71,2.38-2.12h-2.38v2.12Z"/>
        <path class="cls-8" d="M25.84,44.68l3.3-.41c.2-.02.39.02.56.13l1.07.7c.19.12.19.39,0,.52l-.88.62c-.15.11-.33.16-.52.15l-3.44-.15-.11-1.57Z"/>
      </g>
      <path class="cls-10" d="M97.71,26.7c-1.92-.2-7.37.47-1.92,3.96,5.45,3.49,5.67.17,3.54-2.64,1,1.06,2.04,2.21,4.1,0,2.06-2.21-1.1-3.52-3.05-1.97,1.44-1.64,3.95-4.75,0-5.02-3.95-.27-6.54,3.02-2.67,5.67Z"/>
      <path class="cls-9" d="M97.97,26.33c-1.35-.93-1.93-1.97-1.63-2.94.35-1.13,1.83-1.92,3.59-1.92.14,0,.28,0,.42.01.64.04,1.45.19,1.64.66.25.62-.4,1.83-1.96,3.6l-.79,1.44,1.42-.78c.46-.37,1.04-.57,1.63-.57.62,0,1.15.24,1.3.59.14.33-.03.79-.5,1.28-.69.74-1.29,1.12-1.79,1.12-.59,0-1.08-.52-1.61-1.08l-.04-.04-.69-.53v1.13c1.02,1.36,1.32,2.62,1.07,3.12-.06.13-.2.29-.63.29-.52,0-1.53-.25-3.37-1.43-2.18-1.4-2.18-2.07-2.13-2.24.15-.5,1.54-.91,3.11-.91.24,0,.46.01.65.03l1.31.02-1-.85Z"/>
      <path class="cls-9" d="M98.08,26.61l1.89-.46c.16-.04.29.13.21.27l-.74,1.4c-.06.11-.19.13-.29.06l-1.14-.93c-.12-.1-.08-.29.07-.33Z"/>
      <path class="cls-9" d="M102.44,21.22c.46.21.94,1.24.56,1.93s-.7,1.29-1.18,1.75c.81-.19,3.09-.11,2.74,1.67,1.72-2.04,8.57-7.58,16.23-7.58s12.17,2.36,15.29,4.38c-.64-.89-5.44-4.74-11.89-5.54-9.47-1.17-16.73,3.18-17.86,4.03,3.51-2.62,6.61-3.87,8.22-4.31-2.14-.2-7.75.44-12.12,3.67Z"/>
      <path class="cls-9" d="M117.27,11.73c-2.04-.43-5.8.46-7.47,1.18s-6.26,2.42-7.82,2.69c.62,1.53-.27,4.17-.86,5.13.64.16,1.07.35,1.32.48.75-1.07,1.64-3.09,1.85-4.08,1.45-.48,5.21-1.5,5.89-1.69,0,0-.2.05-.38.09-.82-.64.16-1.03.86-1.25.7-.21,2.91-.88,5.52-1.24,2.07-.28,2.47,1.18.91,1.4-.4.06-3.32.59-3.53.69-.21.09-.38.17-.48.12-.11-.05-.44-.2-.54-.26s-.42-.17.31-.2,2.78-.3,4.15-.56.43-.91-.75-.86c-1.18.05-4.78.99-5.46,1.16-.67.16-1.26.48-.62.91.7.59,1.83,1.18,3.01.97s6.64-1.42,6.64-1.42c.89-.19,1.29-.54,1.29-1.34s-1.8-1.48-3.84-1.91Z"/>
      <path class="cls-9" d="M129.31,17.16c-.86-.32-2.55-2.2-7.26-2.55.05-.56.35-2.77-3.55-3.09,2.58.13,4.11.27,4.92.38s2.69.75,3.65,1.32,1.26.91,1.96,1.56c-.21-.48-.35-.75-.67-1.16,1.69.91,4.92,2.2,8.73,5.27-1.99-1.16-3.33-1.59-4.35-1.99,1.53,1.02,5.03,3.82,6.85,6.05-2.18-1.67-5-3.9-10.29-5.78Z"/>
      <g>
        <path class="cls-9" d="M35.42,42.26c-2.04-1.13-9.82-9.14-10.59-13.6-.24-1.4-.18-1.9.32-2.58.37-.49.86-1.07,1.18-1.4s1.4-.27,1.83.86,3.17,13.71,7.26,16.71Z"/>
        <path class="cls-9" d="M38.64,41.29c-.16-3.06-.48-5.91-.16-8.17s.54-3.22,1.13-4.03,1.4-1.07,1.99-.86,1.13,1.07.64,2.53-2.26,5.43-2.74,6.83-.7,2.42-.86,3.71Z"/>
        <path class="cls-9" d="M39.18,48.93c.27,2.53.43,4.73.86,6.88s.91,3.65,1.45,4.46.86,1.02,1.56.81,1.83-1.07.11-3.65-3.28-4.84-3.98-8.49Z"/>
        <path class="cls-9" d="M35.35,48.23c-1.93,2.26-6.29,8.1-6.29,13.99,0,3.39,1.41,4.15,2.1,4.23s.97.04,1.29-.04,1.09-.69.73-1.81-3.22-7.42,2.18-16.37Z"/>
        <path class="cls-9" d="M41.52,44.9c1.1-1.05,5.48-5.48,6.56-4.19s-1.64,2.58-2.45,2.79-2.71.48-4.11,1.4Z"/>
        <path class="cls-9" d="M41.52,45.57c1.02.64,4.33,2.9,5.78,3.22s2.96-1.16.35-2.15c-2.2-.78-4.38-.3-6.13-1.07Z"/>
      </g>
      <g>
        <path class="cls-12" d="M44.13,66.01c-2.96,2.72-6.64,5.35-9.41,6.89-3.98,2.2-7.52.38-8.65-.54s-2.9-3.49-2.1-10.05.81-10.05.59-15.16c-.44-10.34-3.06-14.24-3.76-16.45s-3.6-6.99,2.96-12.31,13.71,1.61,15.32,3.55c.19.23.42.47.66.71h0c-1.28.41-2.17.9-2.57,1.38s-1.93.07-2.82-.69-1.93-2.62-4.6-2.62-6.63,2.64-6.63,6.97c0,2.74,1.5,5.58,3.32,7.97,1.93,2.54,3.59,4.6,7.9,7.5,1.29.81,2.26,1.49,2.26,1.49v1.89c-4.86,1.03-9.55,8.65-9.55,14.55,0,3.37.56,7.28,3.49,7.28s5.22-.4,7.2-1.98,3.14-1.9,6.4-.4Z"/>
        <path class="cls-12" d="M34.34,43.72v3.4c0,.29.15.57.39.73l2.56,1.72c.3.2.68.2.98,0l2.89-1.94c.24-.16.38-.43.38-.72v-2.83c0-.26-.12-.51-.32-.67l-3.12-2.53c-.34-.28-.83-.26-1.15.04l-2.33,2.17c-.18.17-.28.4-.28.64Z"/>
      </g>
      <path class="cls-12" d="M53.56,40.78c-.22,1.08-.97,2.37-2.21,2.34s-1.42-.35-1.87-.89c-.31.59-1.03,1.93-2.19,2.45,1.16.43,2.18,1.98,2.27,2.52.7-1.06,1.41-1.23,1.89-1.2s2.72.19,3.13,2.09c-.15-1.54-.43-4.43-1.03-7.31Z"/>
      <g>
        <path class="cls-3" d="M29.13,60.97c.43.91,2.45,2.58,3.11,0"/>
        <path class="cls-3" d="M29.65,58.27c.1,1,1.29,2.4,2.44.6"/>
        <path class="cls-3" d="M30.33,56.32c.17.78.9,2.09,1.91.37"/>
        <path class="cls-3" d="M31.04,54.72c.1.79.41,1.59,1.4.72"/>
        <path class="cls-3" d="M31.61,53.63c0,.48.25,1.16,1.19.36"/>
        <path class="cls-3" d="M39.67,53.47c.43.4.82.49.93-.27"/>
        <path class="cls-3" d="M39.87,54.86c.52.46,1.2.85,1.41-.38"/>
        <path class="cls-3" d="M40.19,56.5c.55.59,1.91,1.51,2.01-.53"/>
        <path class="cls-3" d="M30.17,37.32c.09-.65.68-1.17,1.52-.76"/>
        <path class="cls-3" d="M29.06,36.01c-.01-1.19-.28-2.28,1.67-1.92"/>
        <path class="cls-3" d="M27.42,33.86c.07-.95-.04-2.4,2.63-1.6"/>
        <path class="cls-3" d="M26.34,32.21c.11-.96.94-3.52,3-2.47"/>
        <path class="cls-3" d="M38.48,33.13c.73-.54,1.88-1.27,2.73.26"/>
        <path class="cls-3" d="M38.34,34.67c.59-.45,1.61-1.3,2.04.5"/>
        <path class="cls-3" d="M38.34,36.3c.3-.74,1.09-1.03,1.5.39"/>
        <path class="cls-3" d="M43.74,42.82c.71-.21,1.33.04,1.18.84"/>
        <path class="cls-3" d="M44.67,42.03c.88-.17,1.76.2,1.43,1.3"/>
        <path class="cls-3" d="M44.92,46.13c.41.47.01,1.22-.58,1.23"/>
        <path class="cls-3" d="M46.17,46.28c.32.66.29,1.76-.88,1.63"/>
      </g>
      <path class="cls-8" d="M53.38,42.38s.08.43.11.63c-.39.31-2.32,1.4-4.25,1.5-.1,0-.17.08-.17.18v.12c0,.1.09.19.19.18,1.18-.04,3.61-.41,4.77.84.04.24.08.82.08.82-.28-.38-1.29-1.09-2.42-1.09s-1.81.54-2.04.78c-.5-.75-1.21-1.51-1.63-1.67,1.13-.93,1.37-1.37,1.55-1.65.31.24,1.2.52,1.95.43s1.55-.64,1.87-1.07Z"/>
      <g>
        <path class="cls-3" d="M31.74,46.69c.21.39.91,1.49,1.37,1.7"/>
        <path class="cls-3" d="M30.17,48.14c.22.52.98,1.32,1.57,1.59"/>
        <path class="cls-3" d="M28.22,50.37c.4.44,1.25,1.16,1.96,1.38"/>
        <path class="cls-3" d="M26.46,53.2c.58.35,1.98.76,2.47.69"/>
        <path class="cls-3" d="M24.98,56.93c.44.22,2.1.59,2.62.43"/>
        <path class="cls-3" d="M24.15,60.92c.58.15,2.03.4,2.9.5"/>
        <path class="cls-3" d="M23.77,64.86c.57-.03,3.18-.19,3.52-.44"/>
        <path class="cls-3" d="M24.69,70.51c.38-.03,3.76-2.28,3.96-2.89"/>
        <path class="cls-3" d="M30.21,68.36c.19.56.7,4.63.62,5.58"/>
        <path class="cls-3" d="M33.03,68.25c.43.7,1.97,3.6,2.07,4.43"/>
        <path class="cls-3" d="M35.63,67.62c.62.17,3.07,1.35,3.82,2.13"/>
        <path class="cls-3" d="M37.73,66.41c.89-.04,3.59.45,4.67,1.12"/>
        <path class="cls-3" d="M32.83,21.85c.68.01,1.91-.09,2.28-.23s1.81-.94,2.31-1.37"/>
        <path class="cls-3" d="M31.01,20.89c0-.58.52-1.52,1.19-1.9s1.18-.86,1.94-1.1"/>
        <path class="cls-3" d="M29.48,16.44c-.32.53-.75,1.77-1,2.55s-.27,1.38,0,1.9"/>
        <path class="cls-3" d="M24.26,18.01c.08.76.42,2.74,1.96,3.96"/>
        <path class="cls-3" d="M20.83,21.56c.48.85,1.87,2.49,3.26,2.66"/>
        <path class="cls-3" d="M19.8,27.72c.46-.22,2.1-.46,3.32-.03"/>
        <path class="cls-3" d="M21.32,32.03c.61-.14,2.03-.66,2.47-.99"/>
        <path class="cls-3" d="M23.34,36.6c.3-.38,1.82-2.03,2.27-2.08"/>
        <path class="cls-3" d="M25.76,39.66c.22-.36,1.65-1.84,2.21-2.05"/>
        <path class="cls-3" d="M28.74,42.26c.36-.54,1.34-1.89,1.66-2.13"/>
        <path class="cls-3" d="M31.61,44.03c.1-.61.77-1.44,1.31-1.86"/>
      </g>
      <circle class="cls-8" cx="41.01" cy="29.49" r=".51"/>
      <circle class="cls-8" cx="26.34" cy="26.64" r=".51"/>
      <circle class="cls-8" cx="31.47" cy="64.86" r=".51"/>
      <circle class="cls-8" cx="42.71" cy="59.52" r=".51"/>
      <g>
        <path class="cls-4" d="M36.55,49.09c.05,1.4.43,7.82.7,9.11s.89,3.22,1.64,4.11"/>
        <path class="cls-4" d="M35.88,27.67c-.27.97-2.02,3.22.43,13.84"/>
        <path class="cls-4" d="M28.89,28.16c.46-.65,1.43-1.26,2.72-.21s1.41,1.13,1.89,1.37"/>
        <path class="cls-4" d="M30.96,29.92c.73.13,1.36.48,1.87.93s1.26,1.01,2.19.93"/>
        <path class="cls-4" d="M30.03,32.03c.38-.31,1.31-.59,2.11.18s1.07,1,1.35,1.18"/>
        <path class="cls-4" d="M35.2,35.33c-.44.08-.76.21-1.12.23s-.71-.28-.97-.54c-.26-.27-.64-.65-1.01-.75"/>
        <path class="cls-4" d="M31.47,36.01c.28-.1.51-.02.8.41.29.43.53.75.85.75h.83"/>
        <path class="cls-4" d="M36.61,50.37c-.39.12-.83.3-1.51.32"/>
        <path class="cls-4" d="M32.98,53.38c.48-.07,1.41-.64,2.01-.81"/>
        <path class="cls-4" d="M36.85,54.18c-.45.29-1.86,1.39-2.87,1.51"/>
        <path class="cls-4" d="M32.09,58.59c.48.02.98-.1,1.63-.44.64-.34.8-.61,1.27-.75"/>
        <path class="cls-4" d="M37.25,58.2c-.52.35-1.01,1.22-1.49,1.54s-1.07.76-1.69,1.03"/>
        <path class="cls-4" d="M36.2,61.83c-.44.38-.79.79-1.37,1.21-.58.42-1.17.66-1.92.78"/>
      </g>
      <g>
        <path class="cls-1" d="M135.43,37.91h-6.04l1.34,1.4h3.49c.52-.59,1.22-1.4,1.22-1.4Z"/>
        <path class="cls-1" d="M207.7,40.59l-3.83.06-.02.79h3.86c.18,0,.33-.15.33-.33v-.2c0-.18-.15-.33-.33-.33Z"/>
        <path class="cls-1" d="M216.47,41.9l-12.59.07-.02.74h12.61c.14,0,.25-.11.25-.25v-.3c0-.14-.11-.25-.25-.25Z"/>
        <path class="cls-1" d="M220.95,43.18l-17.08.07-.02.56h17.1c.15,0,.27-.12.27-.27v-.09c0-.15-.12-.27-.27-.27Z"/>
        <path class="cls-1" d="M211.61,44.46h-7.74s-.02.5-.02.5h7.76c.08,0,.14-.06.14-.14v-.22c0-.08-.06-.14-.14-.14Z"/>
        <path class="cls-1" d="M140.22,37.91h.43l-.78,1.4h-.39c.35-.61.58-1.04.74-1.4Z"/>
        <polygon class="cls-1" points="66.99 37.91 63.16 37.91 62.6 39.31 66.3 39.31 66.99 37.91"/>
        <path class="cls-1" d="M61.15,43.85h2.95c.08-.22.32-.72.46-1.03h-3.14l-.27,1.03Z"/>
        <path class="cls-1" d="M76.78,43.85h11.99c-.16-.25-.55-.7-.87-1.03h-10.22c-.29.3-.66.7-.9,1.03Z"/>
        <polygon class="cls-1" points="117.84 43.85 116.53 43.85 116.53 42.9 116.74 42.67 117.84 43.85"/>
        <polyline class="cls-1" points="124.1 42.82 126.98 42.82 127.81 43.85 125.19 43.85"/>
        <polygon class="cls-1" points="136 43.85 136.52 43.85 137.37 42.82 136.81 42.82 136 43.85"/>
        <path class="cls-1" d="M63.75,47.54l-3.3.02c.05-.35.11-.78.16-1.04l3.19-.02-.05,1.04Z"/>
        <polygon class="cls-1" points="133.81 46.58 134.33 47.15 133.33 47.15 133.81 46.58"/>
        <polygon class="cls-1" points="123.66 46.15 122.8 47.21 124.73 47.2 123.66 46.15"/>
        <path class="cls-1" d="M107.85,46.24l-6.43.04c-.19.14-.71.66-1.05,1.06l6.63-.04.85-1.06Z"/>
        <path class="cls-1" d="M90.25,47.39l-15.39.09c.14-.42.42-1.05.42-1.05l14.68-.09c.09.31.22.76.28,1.05Z"/>
        <path class="cls-1" d="M64.11,51.67l-4.05.07c.02-.22.05-.73.07-1.03l3.99-.06v1.03Z"/>
        <path class="cls-1" d="M124.64,49.65l-3.74.06c-.24.29-.42.49-.62.66.24.22.41.37.41.37l2.97-.05.98-1.05Z"/>
        <polygon class="cls-1" points="133.04 50.55 137.1 50.48 136.27 49.46 132.32 49.53 133.04 50.55"/>
        <path class="cls-1" d="M105.17,49.97l-4.23.07c.09.4.18.77.25,1.03l3.44-.06c.17-.34.43-.85.55-1.04Z"/>
        <path class="cls-1" d="M90.64,51.24l-16.75.27c.04-.36.11-.74.16-1.03l16.56-.27c.01.37.03.71.02,1.03Z"/>
        <polygon class="cls-1" points="118.27 47.24 117.46 47.24 116.57 46.19 119.2 46.17 118.27 47.24"/>
        <polygon class="cls-1" points="53.24 39.31 23.65 39.31 23.34 37.91 52.88 37.91 53.24 39.31"/>
        <polygon class="cls-1" points="54.11 43.85 24.33 43.85 24.22 42.82 53.94 42.82 54.11 43.85"/>
        <path class="cls-1" d="M54.55,47.59l-29.97.17-.04-1.03,29.91-.18c.03.34.07.73.1,1.04Z"/>
        <path class="cls-1" d="M54.8,51.82l-30.11.49v-1.03s30.08-.49,30.08-.49c.02.4.02.7.04,1.03Z"/>
      </g>
      <path class="cls-6" d="M95.65,39.08c-.77.24-1.29.92-1.01,1.81s1.45,2.42,2.14,3.63c.17,1.42.38,3.01.54,3.79-.82-.64-1.43-1.16-1.95-1.21s-1.41.08-2.22,2.01c1.29-.44,1.89-.28,2.3,0-.32-.12-1.65.12-1.65,1.73.08.44.4.16.56,0s1.05-.69,1.41-.93c-.56.85-.81,1.26-.85,1.56.85-.27,1.87-1.01,2.06-1.16.04.18.02.32.02.4-.64.5-.95.95-1.23,1.61,1.05-.67,2.06-.91,2.29-.81.09.33.69.3.96.22s.75-.46,0-1.99c.67-1.69,3.01-6.59,8.83-3.53,1.59-1.98,6.55-8.07,7.2-8.86-1-1.67-2.15-3.24-2.94-3.88s-2.34-1.85-3.33-2.42-2.58-1.2-3.71-1.23c-.64.53-2.28,2.39-3.01,4.19s-1.18,2.39-1.45,2.93-.67,1.21-1.67,1.37-2.34.48-3.29.74Z"/>
      <g>
        <path class="cls-8" d="M112.98,47.83c-.28.04-.71.6-.59,1.41s.46,1.57.59,3.91-.25,5.12-.67,6.37c.3-.12.45-.23.66-.29.39-.03.67-.07,1.04-.14.5-3.39.51-4.52.47-5.73s-.28-3.71-.42-4.32-.57-1.29-1.08-1.21Z"/>
        <path class="cls-8" d="M109.39,64.59c.27-.16.54-.34.75-.51.23.08.52.15,1.56.31-.7.58-.91.79-1.22.98-.47-.35-1.09-.78-1.09-.78Z"/>
        <path class="cls-8" d="M106.84,66.26c-1,.81-1.44,1.05-1.82,1.29s-.83.69-.75.94.97.46,1.5.19,2.02-1.28,2.36-1.48c-.53-.36-.99-.67-1.29-.94Z"/>
      </g>
      <path class="cls-10" d="M86.48,26.88c1.03.99,1.16,2.02.63,2.66s-.98,1.14-1.82,1.35-2.26.24-2.86.8c-.07-.89-.2-1.43-.28-1.92-.03-.16.02-.32.12-.44.47-.56.67-1.12.92-1.99.28-.97.84-1.25,1.61-1.25s1.27.4,1.68.79Z"/>
      <path class="cls-12" d="M82.86,29.51c-.15,0-.23.09-.23.2s.07.3.09.44.19.26.31.32.38.38.91.35c-.34-.2-.46-.66-.47-.86s-.03-.32-.03-.48c-.24.01-.59.03-.59.03Z"/>
      <g>
        <path class="cls-9" d="M161.85,37.99l3.76.13,5.56,3.87-1.5,1.21-2.39-1.24-9.08,6.37,6.96-.35-2.15-2.34,2.45-1.59,2.18,1.42,4.7-3.55-5.7-3.9,2.79.05,4.17,2.74.08-2.71,1.75.03-.13,5.78c0,.11-.12.17-.21.11l-1.69-1.11c-.09-.06-.2-.05-.28.02l-6.53,5.66-9.19.73-.21-4.08-4.81,4.25-3.25.24,7.01-5.89,2.93,2.07-.11-8.01,1.64.03,3.68,2.63-3.22,2.28s-.16-2.18-.16-2.1,1.53-.03,1.53-.03l-.05-.67-2.15.11.4,4.14,4.89-3.82-3.65-2.5Z"/>
        <path class="cls-9" d="M176.3,38.21l2.91.12c.06,0,.11.02.16.04l2.55,1.35c.12.07.13.24.02.32l-3.17,2.19c-.1.07-.24,0-.25-.12l-.06-1.48c0-.11.08-.21.19-.22l1.4-.13c.06,0,.11-.06.11-.12v-.3c0-.06-.04-.1-.1-.1l-2.13.12c-.14,0-.24.12-.24.26l.09,2.8c.01.42.49.64.82.4l4.36-3.25c.16-.12.15-.36-.02-.46l-1.85-1.11c-.06-.03-.03-.12.04-.12l3.8.12c.06,0,.11.02.16.05l3.44,2.39c.09.07.1.21,0,.27l-1.39.99c-.07.05-.16.05-.23,0l-2-1.2c-.13-.08-.3-.07-.43.02l-8.18,5.72c-.38.27-.17.86.29.83l5.09-.33c.47-.03.68-.61.33-.93l-1.36-1.24c-.06-.06-.06-.16.01-.21l2.16-1.55c.09-.07.23-.04.29.06l.24.39c.03.05.08.09.14.12l1.79.79c.12.06.26,0,.32-.12l.21-.46s.06-.09.1-.12l3.79-2.84c.15-.11.14-.34-.02-.44l-3.18-2.05s-.02-.08.02-.08l1.13.02s.08.01.12.03l2.73,1.43c.14.07.3-.03.3-.18l-.02-1.08c0-.11.09-.19.19-.19l1.54.06c.13,0,.23.11.23.24l-.1,4.58c0,.09-.11.14-.18.08l-1.92-1.63c-.14-.12-.35-.12-.5,0l-6.63,5.63s-.08.05-.13.05l-8.58.58c-.12,0-.22-.08-.22-.2l-.06-1.97c0-.2-.23-.32-.4-.21l-3.69,2.41s-.08.04-.13.04l-2.1.16c-.05,0-.08-.06-.04-.1l5.14-4.35c.08-.06.19-.07.27-.02l1.92,1.26c.25.16.57-.01.58-.31l.07-6.54c0-.11.09-.2.2-.19Z"/>
        <path class="cls-9" d="M185.13,47.55l5.08-4.52c.08-.07.19-.07.27,0l2.37,1.96c.28.23.71.03.71-.34l-.05-5.7c0-.09.08-.17.17-.17l2.13.07,2.25,1.92c.09.07.07.21-.03.26l-3.2,1.66s-.1-.01-.1-.07v-1.34c0-.07.06-.13.13-.13l1.25-.02c.09,0,.17-.08.16-.17l-.03-.46c0-.08-.08-.15-.16-.15l-1.66.02c-.09,0-.15.07-.15.16l.02,1.96s0,.08-.03.11l-.19.38c-.03.06-.03.14.01.2l.1.15c.05.07.14.1.22.06l4.64-2.41c.11-.06.13-.2.04-.28l-1.8-1.71s-.01-.1.04-.09l3.09.14c.06,0,.12.03.17.08l1.76,1.99c.08.08.12.19.12.31l-.03,1.15c0,.1-.04.2-.11.28l-.2.14-1.04-1.49c-.19-.22-.52-.28-.77-.12l-5.93,3.62c-.21.13-.17.44.07.51l.36.11c.09.03.18.04.28.03l3.35-.2c.09,0,.17-.04.25-.09l.17-.12c.15-.11.17-.33.05-.46l-.9-.96c-.07-.08-.06-.2.04-.26l.93-.54c.1-.06.23-.04.31.06l.68.84c.21.26.58.34.88.18l.98-.52c.06-.03.13,0,.14.07l.06.64c0,.07-.02.13-.08.17l-3,2.13s-.07.04-.11.04l-6.35.34c-.09,0-.17-.07-.18-.16l-.09-1.47c0-.09-.1-.14-.18-.1l-3.8,2.16s-.09.04-.14.04l-2.89.19c-.06,0-.09-.07-.04-.11Z"/>
        <path class="cls-9" d="M201.44,39.27l.92,1.12s.07.01.07-.02v-1.01c0-.09-.07-.16-.16-.16h-.79s-.07.04-.04.08Z"/>
        <path class="cls-9" d="M201.93,45.31l-1.71,1.22s-.02.1.03.1l1.63-.05c.09,0,.16-.08.16-.17l-.05-1.07s-.04-.05-.07-.03Z"/>
        <polygon class="cls-9" points="156.04 42.87 158.25 44.44 158.13 37.87 156.28 37.91 156.12 40.73 152.09 37.91 150.07 37.95 154.83 41.66 149.87 45.53 147.98 43.87 145.48 46.01 148.42 48.35 140.6 49.07 149.71 41.5 151.32 42.99 152.25 42.99 153.66 41.74 147.81 37.79 144.99 37.91 148.78 40.81 144.07 44.56 143.86 40.49 145.92 40.41 145.92 41.01 144.59 41.09 144.71 42.83 147.37 40.81 143.86 37.99 142.61 38.03 142.78 45.85 141.57 45.93 139.63 44.52 137.86 46.66 138.7 47.66 140.16 46.17 140.03 49.6 140.92 50.57 141.65 50 147.93 49.84 156.04 42.87"/>
        <polygon class="cls-9" points="135.95 44.55 138.48 41.48 139.82 42.05 139.87 39.31 140.65 37.91 141.97 37.88 142.16 45.27 139.44 43.47 137.35 46.02 135.95 44.55"/>
      </g>
      <path class="cls-9" d="M203.27,39.07c-.24.03-.33.56-.33.94s-.11,5.02-.11,5.93.45.54.53.03.16-5.83.17-6.18c.02-.41-.02-.75-.27-.72Z"/>
      <g>
        <path class="cls-7" d="M236.07,42.14s-.06-.93-.06-1.03c-1.09.04-3.53-.18-4.21-.2s-3.08-.36-3.77-.36-3.14.06-3.14.64c0,.38.77.42,1.37.5s2.4.14,3.29.2,4.55.06,5.08.08,1.09.1,1.45.16Z"/>
        <path class="cls-7" d="M236.09,43.73c-1.15.1-4.76.22-6.11.18-1.35-.04-3-.08-3.55-.04-.54.04-.93.22-.93.48s.67.42,1.13.42,2.72-.06,3.49-.08,5.34-.22,6.03-.38c-.04-.22-.06-.58-.06-.58Z"/>
      </g>
      <g>
        <path class="cls-12" d="M210.2,35.89c.46.06.7.12.85.18.03.01.05.05.05.08,0,.32.04.59.05.77,0,.05-.04.09-.09.1-.3.01-.66.02-.87.04-.05,0-.1-.04-.1-.09v-.99c0-.06.05-.1.11-.09Z"/>
        <path class="cls-12" d="M219.29,36.86l1.32.04s.08.03.09.08c.02.17.06.59.07.84,0,.06-.06.11-.11.09-.38-.11-1.01-.21-1.35-.26-.05,0-.08-.04-.08-.09,0-.26-.01-.48-.02-.6,0-.05.04-.1.09-.1Z"/>
        <path class="cls-12" d="M205.65,48.16c.43.08.99.17,1.21.19.05,0,.08.05.08.09,0,.38.01.67.02.84,0,.05-.04.09-.09.09-.37,0-1.01-.12-1.29-.22-.04-.01-.06-.05-.06-.09,0-.32.02-.66.02-.83,0-.06.05-.09.11-.08Z"/>
        <path class="cls-12" d="M216.5,48.47c-.39.04-1.29.13-1.6.15-.05,0-.09.05-.08.1.01.29.09.5.13.63.01.04.05.07.09.07.53,0,1.2-.1,1.45-.14.04,0,.07-.04.08-.09.01-.25.03-.49.04-.63,0-.06-.04-.1-.1-.1Z"/>
      </g>
      <g>
        <path class="cls-9" d="M207.37,29.78c-.66-.11-1.39-.24-1.97-.24-.68,0-1.64.26-1.64.26-.09.03-.2.19-.22.38-.01.19,0,.86,0,.86l.22.19v.94h-.22v.81c0,.21.09.35.25.47.16.12.77.74,1.72.87.03,0,.06,0,.08,0v.4h.27v.45s-1.33-.11-1.33,0,1.27.52,1.27.52v1.63l-.29.14v.32l.57-.22v-4.85c0-.08.06-.14.14-.14h.19c.08,0,.14.06.14.14v4.94l.91-.16v-.29l-.33-.33v-.37h.24s.01-1.03.01-1.03c0,0,.69-.26.68-.38s-.95-.28-.95-.28c-.08-.03-.12-.11-.1-.18l.16-.59s.04-.08.08-.09c.17-.06.62-.23.78-.34.2-.14.38-.25.38-.7v-2.01c0-.5-.38-1.02-1.04-1.13ZM207.45,30.81s-.46-.24-1.25-.3-1.07.03-1.23.1-.38.09-.42.51-.05.5-.06.68-.27.26-.25-.02.05-.54.09-.8.25-.78.71-.88,1.09-.21,2.56.2l-.14.5Z"/>
        <path class="cls-9" d="M217.02,32.76c.15-.21.21-.42.21-.74s-.05-1.05-.11-1.46c-.05-.42-.58-1.03-1.28-1.03s-2.66.05-2.66.05c-.32.03-.9.35-.93.78s-.05,1.4-.05,1.57.13.51.38.71.85.71,1.17.9c.21.12.35.22.43.27.04.03.06.07.06.11v.46c0,.08-.06.14-.14.14h-.55c-.13,0-.19.14-.1.23l.7.69s.04.05.04.08l.2,1.5h.28l-.13-4.56c0-.08.06-.15.14-.14h.4c.07,0,.14.07.14.14l.1,4.59c0,.07.05.12.11.13l.67.13c.09.02.17-.06.17-.15l-.19-2.03c0-.06.03-.12.09-.14l.48-.19c.12-.05.12-.22,0-.26l-.5-.16c-.06-.02-.1-.07-.1-.13v-.39s0-.07.03-.1c.17-.17.81-.81.94-.99ZM215.96,30.6c-.23-.13-.4-.2-.59-.2s-1.24.04-1.45.07c-.21.03-.39.17-.47.31-.08.13-.08.44-.08.73s-.3.12-.3-.03c0,0,0-.43.05-.78.05-.35.48-.58.67-.6.19-.03,1.05-.09,1.44-.09s.56.09.89.27c.32.17.39.43.39.43,0,0-.32.04-.55-.09Z"/>
        <path class="cls-9" d="M221.99,53.37c-.02-.18-.19-.31-.2-.44s.11-.35.11-.45-.14-.31-.23-.44c-.08-.12-.32-.56-.82-.81-.09-.04-.14-.12-.14-.22,0-.06,0-.14,0-.21,0-.12.1-.22.22-.23.14-.01.31-.02.44-.03.13-.01.23-.12.22-.25l-.03-.47s-.19-.18-.31-.19-.3.16-.35.29-.18-.02-.18-.13c0-.08-.07-.95-.11-1.42-.01-.16-.18-.26-.33-.2-.03.01-.06.02-.09.04-.11.04-.17.15-.15.26.07.46.2,1.17.18,1.48-.02.36-.14.98-.17,1.35-.02.3-.06,1.13-.07,1.54,0,.13-.1.23-.23.24-.05,0-.09,0-.13,0-.13,0-.24-.11-.24-.25.03-.85.17-2.07.19-2.37.02-.27-.02-1.32-.07-1.82-.01-.13-.13-.22-.25-.22h0c-.14,0-.24.13-.23.27.04.37.05.71.06.88.02.21-.08.52-.38.58s-.74.16-.71.36.21.31.43.28.29-.06.41-.08c.02.28.02.46.02.57,0,.07-.04.14-.09.19-.37.29-1,.87-1.11,1.14-.11.29-.1.39-.11.47s.17.2.17.33-.03.25-.14.3-.29.31-.2.47.59.72.83.77.99-.06,1.26-.09,1.63-.14,1.77-.16.43-.42.47-.48c.08.13.26.24.28-.13s.03-.52.01-.71ZM221.43,53.79s-.04.16-.05.22-.09.1-.24.09-.68-.02-.85-.02-.66-.02-1.18.01-.85-.43-.85-.75.05-.46.09-.62.09-.34.17-.34c0,0,.16.05.23.06s.06.09.06.15-.05.18-.06.49.36.42.52.42,1.76.12,1.97.12.19.12.18.16Z"/>
        <path class="cls-9" d="M212.82,52.33c-.45-.39-.8-.68-1.13-.86-.04-.02-.06-.06-.06-.11v-.74c0-.05.03-.1.08-.12.27-.09.67-.19.68-.31.01-.13-.42-.27-.61-.24s-.4.05-.43-.11c-.06-.29.12-.28.11-.45,0-.13-.04-.54-.05-.73,0-.06-.05-.11-.12-.11l-.43-.03c-.07,0-.13.05-.13.12l-.14,4.87c0,.07-.06.12-.13.12h-.29c-.07-.01-.12-.07-.12-.14l.13-4.86c0-.07-.05-.13-.12-.13-.07,0-.15,0-.22,0-.07,0-.13.05-.13.12,0,.44.02.94.03,1.17,0,.07-.06.13-.13.13-.16,0-.41-.02-.5-.01-.13.01-.41.12-.41.38s.37.36.79.32c.14,0,.19.15.18.23s.03.35.08.47.03.24-.15.43-1,.81-1.2.95-.24.49-.23.78.03,1.06.06,1.33.27.88.88.97,2.79.16,3.28.11.7-.12.77-.66.21-1.28.22-1.6-.06-.88-.53-1.29ZM212.24,55.07c-.33-.02-2.21-.11-2.51-.11s-.78-.06-.84-.58,0-.8.13-1.05.29-.58.43-.48c.07.05.1.22.06.32s-.19.31-.19.58.15.68.45.71,2.24.12,2.61.21.18.42-.15.4Z"/>
      </g>
      <g>
        <g>
          <path class="cls-12" d="M108.78,31.08c1.07.75,2.2,1.45,3.33,2.42-.91-1.88-1.34-3.01-.97-3.28s.97-.32,2.79.54,2.84,1.29,4.41,2.74,3.44,3.17,4.89,4.84,4.43,5.37,5.62,6.72c.9-.88,1.5-1.59,1.99-2.11-1.21-1.37-7.7-8.46-9.59-10.32s-7.18-6.29-10.36-4.51c-1.09.64-1.88,1.42-2.11,2.97Z"/>
          <polygon class="cls-12" points="121.35 43.83 125.05 40.49 123.54 38.69 119.63 42.05 121.35 43.83"/>
          <path class="cls-12" d="M121.35,43.83c.78.78,1.91,1.9,2.32,2.31-2.2,2.69-2.79,3.79-3.38,4.25-1.26-1.32-1.91-2.02-2.42-2.66.75-.9,1.44-1.67,1.73-1.99l1.75-1.9Z"/>
          <path class="cls-12" d="M126.54,51.48l-2.18,2.18-1.97-1.55,5.46-5.97,2.98-3.18s4.68-4.9,5.78-6.57,1.05-3.04.43-3.44-1.45-.3-2.15,0-3.57,1.32-6.15,4.33c-.73-.67-1.32-1.37-1.69-1.75,1.37-1.64,8.84-7.15,11.34-3.79s.03,6.05-1.75,8.22-7.93,9.46-10.1,11.53Z"/>
          <path class="cls-12" d="M121.26,56.38c-.84-.76-1.67-1.51-1.67-1.51-.71.71-2.6,2.16-3.63,2.8-.28.38-.97,1.49-3,1.55-1.01.48-1.98.75-2.96.64-.2.04-.4.09-.6.12h0c.24.62,1.25,1.31,2.9,1.19,1.91-.13,3.25-.78,4.43-1.34s3.68-2.45,4.51-3.44v-.03Z"/>
          <path class="cls-12" d="M130.49,50.38c2.51,2.2,6.64,8.06,5.17,9.89s-5.83.07-9.41-2.59-10.01-9.39-12.19-12.11c0,0,.58-.7,1.02-1.17,2.79,3.32,4,4.82,5.21,5.98s3.17,2.43,4.08,3.28,1.07.97,1.85,1.56,6.53,4.54,7.34,3.49-2.13-5.57-4.06-7.24c.45-.5.99-1.08.99-1.08Z"/>
          <path class="cls-12" d="M110.9,56.77c-1.72.78-4.32.67-4.53-1.29-.23-2.12.69-4.04,2.22-6.34,1.14-1.72,6.7-8.06,9.74-11.54,0,0,1.38-1.58,1.95-2.27.52.48,1.58,1.53,1.85,1.8-2.07,2.31-5.96,5.97-7.44,7.7-1.48,1.73-3.9,4.39-4.62,5.63s-1.34,2.71-.83,3.33,1.05.64,1.83.32c.05.94-.04,1.93-.16,2.66Z"/>
        </g>
        <path class="cls-12" d="M115.74,50.83h.55s.8,1.02,1.12,1.41c-.43.4-.85.74-1.23.95-.18-.94-.45-2.36-.45-2.36Z"/>
      </g>
      <g>
        <circle class="cls-5" cx="100.65" cy="16.03" r=".99"/>
        <circle class="cls-5" cx="100.7" cy="18.01" r=".99"/>
        <circle class="cls-5" cx="99.97" cy="19.85" r=".99"/>
        <g>
          <circle class="cls-5" cx="56.38" cy="73.08" r=".92"/>
          <circle class="cls-5" cx="54.84" cy="72.03" r=".92"/>
          <circle class="cls-5" cx="54.67" cy="68.5" r=".92"/>
          <circle class="cls-5" cx="56.41" cy="67.86" r=".92"/>
          <circle class="cls-5" cx="58.09" cy="64.48" r=".5"/>
          <circle class="cls-5" cx="57.55" cy="65.88" r=".47"/>
          <circle class="cls-5" cx="57.74" cy="66.99" r=".68"/>
          <circle class="cls-5" cx="53.45" cy="70.86" r=".92"/>
          <circle class="cls-5" cx="50.53" cy="67.17" r=".92"/>
          <circle class="cls-5" cx="48.55" cy="63.12" r=".83"/>
          <circle class="cls-5" cx="52.28" cy="68.77" r="1.48"/>
          <circle class="cls-5" cx="61.69" cy="57.2" r=".69"/>
          <circle class="cls-5" cx="84.72" cy="51.99" r=".66"/>
          <circle class="cls-5" cx="82.49" cy="54.21" r=".66"/>
          <circle class="cls-5" cx="82.34" cy="55.52" r=".66"/>
          <circle class="cls-5" cx="82.92" cy="56.72" r=".66"/>
          <circle class="cls-5" cx="82.83" cy="58.03" r=".64"/>
          <circle class="cls-5" cx="81.58" cy="57.72" r=".64"/>
          <circle class="cls-5" cx="81.45" cy="56.47" r=".64"/>
          <circle class="cls-5" cx="80.36" cy="57.33" r=".64"/>
          <circle class="cls-5" cx="79.15" cy="56.87" r=".64"/>
          <circle class="cls-5" cx="80.18" cy="55.99" r=".71"/>
          <circle class="cls-5" cx="77.96" cy="56.37" r=".64"/>
          <circle class="cls-5" cx="76.88" cy="56.02" r=".5"/>
          <circle class="cls-5" cx="88" cy="57.8" r=".57"/>
          <circle class="cls-5" cx="87.36" cy="58.74" r=".57"/>
          <circle class="cls-5" cx="86.53" cy="59.67" r=".68"/>
          <circle class="cls-5" cx="85.48" cy="60.55" r=".68"/>
          <circle class="cls-5" cx="78.99" cy="55.85" r=".38"/>
          <circle class="cls-5" cx="88.51" cy="56.71" r=".64"/>
          <circle class="cls-5" cx="74.85" cy="56.1" r=".57"/>
          <circle class="cls-5" cx="75.41" cy="57.14" r=".61"/>
          <circle class="cls-5" cx="76.11" cy="58.21" r=".67"/>
          <circle class="cls-5" cx="76.98" cy="59.31" r=".73"/>
          <circle class="cls-5" cx="78.04" cy="60.44" r=".83"/>
          <circle class="cls-5" cx="79.81" cy="61.54" r="1.25"/>
          <circle class="cls-5" cx="83.86" cy="61.46" r="1.17"/>
          <circle class="cls-5" cx="76.04" cy="55.69" r=".38"/>
          <circle class="cls-5" cx="84.07" cy="57.44" r=".73"/>
          <circle class="cls-5" cx="86.86" cy="52.01" r=".71"/>
          <circle class="cls-5" cx="45.84" cy="55.86" r=".69"/>
          <circle class="cls-5" cx="44.92" cy="54.84" r=".69"/>
          <circle class="cls-5" cx="43.93" cy="53.92" r=".69"/>
          <circle class="cls-5" cx="54.93" cy="55.37" r=".81"/>
          <circle class="cls-5" cx="52.21" cy="38.52" r=".81"/>
          <circle class="cls-5" cx="51.78" cy="36.96" r=".81"/>
          <circle class="cls-5" cx="51.28" cy="35.43" r=".81"/>
          <circle class="cls-5" cx="47.75" cy="34.8" r=".87"/>
          <circle class="cls-5" cx="46.03" cy="34.71" r=".87"/>
          <circle class="cls-5" cx="44.4" cy="34.11" r=".87"/>
          <circle class="cls-5" cx="43.43" cy="35.54" r=".87"/>
          <circle class="cls-5" cx="49.63" cy="34.64" r="1.02"/>
          <circle class="cls-5" cx="54.07" cy="54.02" r=".81"/>
          <circle class="cls-5" cx="52.54" cy="53.51" r=".81"/>
          <circle class="cls-5" cx="60.48" cy="27.45" r=".5"/>
          <circle class="cls-5" cx="50.94" cy="53.29" r=".81"/>
          <circle class="cls-5" cx="49.33" cy="53.38" r=".81"/>
          <circle class="cls-5" cx="47.87" cy="53.84" r=".73"/>
          <circle class="cls-5" cx="46.65" cy="54.7" r=".73"/>
          <circle class="cls-5" cx="49.58" cy="65.84" r=".72"/>
          <circle class="cls-5" cx="48.96" cy="64.58" r=".69"/>
          <circle class="cls-5" cx="57.77" cy="15.14" r="1.45"/>
          <circle class="cls-5" cx="61.15" cy="75.39" r="1.38"/>
          <circle class="cls-5" cx="59.59" cy="62.59" r="1.91"/>
          <circle class="cls-5" cx="61.47" cy="72.64" r="1.38"/>
          <circle class="cls-5" cx="61.77" cy="69.9" r="1.38"/>
          <circle class="cls-5" cx="62.09" cy="67.25" r="1.29"/>
          <circle class="cls-5" cx="59.31" cy="65.78" r="1.29"/>
          <circle class="cls-5" cx="59.15" cy="68.36" r="1.29"/>
          <circle class="cls-5" cx="59.15" cy="70.94" r="1.29"/>
          <circle class="cls-5" cx="56.46" cy="70.27" r="1.48"/>
          <circle class="cls-5" cx="58.74" cy="73.73" r="1.53"/>
          <circle class="cls-5" cx="62.4" cy="64.8" r="1.18"/>
          <circle class="cls-5" cx="60.68" cy="59.67" r="1.22"/>
          <circle class="cls-5" cx="59.03" cy="53.82" r="1.18"/>
          <circle class="cls-5" cx="56.71" cy="54.32" r="1.18"/>
          <circle class="cls-5" cx="62.62" cy="62.51" r="1.13"/>
          <circle class="cls-5" cx="57.8" cy="60.18" r="1.09"/>
          <circle class="cls-5" cx="62.85" cy="60.34" r="1.05"/>
          <circle class="cls-5" cx="63" cy="58.29" r="1.01"/>
          <circle class="cls-5" cx="74.8" cy="52.51" r="1.01"/>
          <circle class="cls-5" cx="74.82" cy="54.52" r="1.01"/>
          <circle class="cls-5" cx="76.83" cy="54.52" r="1.01"/>
          <circle class="cls-5" cx="78.84" cy="54.46" r="1.01"/>
          <circle class="cls-5" cx="80.85" cy="54.42" r="1.01"/>
          <circle class="cls-5" cx="76.82" cy="52.51" r="1.01"/>
          <circle class="cls-5" cx="78.83" cy="52.44" r="1.01"/>
          <circle class="cls-5" cx="80.85" cy="52.41" r="1.01"/>
          <circle class="cls-5" cx="83" cy="52.5" r="1.14"/>
          <circle class="cls-5" cx="88.95" cy="52.8" r="1.53"/>
          <circle class="cls-5" cx="63.1" cy="56.31" r=".97"/>
          <circle class="cls-5" cx="88.91" cy="55.23" r=".9"/>
          <circle class="cls-5" cx="62.1" cy="53.57" r="1.92"/>
          <circle class="cls-5" cx="67.22" cy="33.34" r="1.82"/>
          <circle class="cls-5" cx="62.42" cy="30.71" r="1.13"/>
          <circle class="cls-5" cx="64.24" cy="33" r="1.23"/>
          <circle class="cls-5" cx="65.76" cy="36.38" r="1.51"/>
          <circle class="cls-5" cx="56.48" cy="32.76" r="1.19"/>
          <circle class="cls-5" cx="54.31" cy="32.11" r="1.08"/>
          <ellipse class="cls-5" cx="52.42" cy="31.04" rx="1.08" ry="1.12"/>
          <ellipse class="cls-5" cx="50.7" cy="29.56" rx="1.16" ry="1.2"/>
          <ellipse class="cls-5" cx="49.03" cy="27.62" rx="1.36" ry="1.41"/>
          <circle class="cls-5" cx="61.67" cy="33.12" r="1.34"/>
          <circle class="cls-5" cx="58.99" cy="33.05" r="1.34"/>
          <circle class="cls-5" cx="61.97" cy="28.66" r=".93"/>
          <circle class="cls-5" cx="55.65" cy="16.22" r=".93"/>
          <circle class="cls-5" cx="57.84" cy="17.51" r=".93"/>
          <circle class="cls-5" cx="56.4" cy="19.57" r="1.19"/>
          <circle class="cls-5" cx="58.49" cy="19.24" r=".93"/>
          <circle class="cls-5" cx="59.18" cy="20.96" r=".93"/>
          <circle class="cls-5" cx="59.83" cy="22.7" r=".93"/>
          <circle class="cls-5" cx="60.49" cy="24.43" r=".93"/>
          <circle class="cls-5" cx="58.5" cy="23.91" r=".87"/>
          <circle class="cls-5" cx="58.15" cy="22.3" r=".8"/>
          <circle class="cls-5" cx="61.11" cy="26.17" r=".93"/>
          <circle class="cls-5" cx="56.86" cy="27.2" r=".54"/>
          <circle class="cls-5" cx="57.94" cy="27.62" r=".63"/>
          <circle class="cls-5" cx="59.29" cy="27.74" r=".72"/>
          <circle class="cls-5" cx="57.57" cy="20.98" r=".64"/>
          <circle class="cls-5" cx="58.99" cy="25.89" r="1.17"/>
          <circle class="cls-5" cx="48.3" cy="25.06" r="1.25"/>
          <circle class="cls-5" cx="48.6" cy="22.71" r="1.12"/>
          <circle class="cls-5" cx="49.67" cy="20.75" r="1.12"/>
          <circle class="cls-5" cx="51.55" cy="19.34" r="1.24"/>
          <circle class="cls-5" cx="54.06" cy="18.12" r="1.55"/>
          <circle class="cls-5" cx="81.87" cy="61.2" r=".76"/>
        </g>
        <circle class="cls-5" cx="88.48" cy="29.91" r=".32"/>
        <circle class="cls-5" cx="89.15" cy="29.62" r=".4"/>
        <circle class="cls-5" cx="88.57" cy="29.38" r=".22"/>
        <circle class="cls-5" cx="88.74" cy="28.91" r=".28"/>
        <circle class="cls-5" cx="89.27" cy="28.96" r=".27"/>
        <circle class="cls-5" cx="89.94" cy="29.43" r=".41"/>
        <circle class="cls-5" cx="89.84" cy="28.66" r=".38"/>
        <circle class="cls-5" cx="90.77" cy="29.29" r=".43"/>
        <path class="cls-5" d="M94.59,29.85c0,.07-.06.13-.13.13s-.13-.06-.13-.13.06-.13.13-.13.13.06.13.13Z"/>
        <circle class="cls-5" cx="94.12" cy="29.66" r=".21"/>
        <circle class="cls-5" cx="93.6" cy="29.38" r=".38"/>
        <circle class="cls-5" cx="90.8" cy="28.14" r=".73"/>
        <circle class="cls-5" cx="91.76" cy="29.07" r=".58"/>
        <circle class="cls-5" cx="88.14" cy="24.49" r="1.09"/>
        <circle class="cls-5" cx="86.08" cy="24.66" r=".85"/>
        <circle class="cls-5" cx="90.4" cy="24.12" r="1.21"/>
        <circle class="cls-5" cx="92.99" cy="23.75" r="1.41"/>
        <circle class="cls-5" cx="89.12" cy="28.25" r=".45"/>
        <circle class="cls-5" cx="89.72" cy="27.37" r=".6"/>
        <circle class="cls-5" cx="92.78" cy="29.21" r=".46"/>
        <circle class="cls-5" cx="93.36" cy="28.79" r=".25"/>
        <circle class="cls-5" cx="92.88" cy="28.38" r=".37"/>
        <circle class="cls-5" cx="92.42" cy="28.69" r=".17"/>
        <circle class="cls-5" cx="92.19" cy="28.23" r=".35"/>
        <path class="cls-5" d="M91.84,28.32c0,.1-.08.17-.17.17s-.17-.08-.17-.17.08-.17.17-.17.17.08.17.17Z"/>
        <circle class="cls-5" cx="91.7" cy="27.97" r=".2"/>
        <circle class="cls-5" cx="92.6" cy="27.91" r=".18"/>
        <circle class="cls-5" cx="93.01" cy="27.78" r=".25"/>
        <circle class="cls-5" cx="93.35" cy="28.36" r=".1"/>
        <circle class="cls-5" cx="93.29" cy="28.07" r=".15"/>
        <circle class="cls-5" cx="90.53" cy="27.22" r=".23"/>
        <circle class="cls-5" cx="89.81" cy="28.13" r=".15"/>
        <circle class="cls-5" cx="89.76" cy="26.58" r=".2"/>
        <circle class="cls-5" cx="94.93" cy="22.56" r=".87"/>
        <circle class="cls-5" cx="96.1" cy="21.73" r=".56"/>
        <circle class="cls-5" cx="97.31" cy="20.15" r=".7"/>
        <circle class="cls-5" cx="97" cy="21.27" r=".47"/>
        <circle class="cls-5" cx="98.42" cy="19.43" r=".62"/>
        <circle class="cls-5" cx="99.22" cy="18.49" r=".58"/>
        <circle class="cls-5" cx="98.53" cy="20.59" r=".55"/>
        <circle class="cls-5" cx="97.78" cy="21.05" r=".34"/>
        <circle class="cls-5" cx="98.64" cy="15.32" r=".48"/>
        <circle class="cls-5" cx="99.38" cy="17.48" r=".43"/>
        <circle class="cls-5" cx="99.39" cy="15.59" r=".32"/>
        <circle class="cls-5" cx="99.89" cy="17.03" r=".25"/>
        <circle class="cls-5" cx="98.53" cy="17.72" r=".45"/>
        <circle class="cls-5" cx="98.41" cy="18.4" r=".23"/>
        <circle class="cls-5" cx="99.44" cy="16.14" r=".22"/>
        <circle class="cls-5" cx="99.53" cy="16.63" r=".28"/>
        <circle class="cls-5" cx="98.81" cy="17" r=".32"/>
        <circle class="cls-5" cx="98.81" cy="16.23" r=".43"/>
        <circle class="cls-5" cx="98.21" cy="17.06" r=".25"/>
        <circle class="cls-5" cx="92.08" cy="27.27" r=".64"/>
        <circle class="cls-5" cx="91.07" cy="27.11" r=".35"/>
        <circle class="cls-5" cx="90.47" cy="26.42" r=".55"/>
        <circle class="cls-5" cx="91.73" cy="25.84" r=".83"/>
        <circle class="cls-5" cx="93.37" cy="25.96" r=".83"/>
        <circle class="cls-5" cx="93.09" cy="27.16" r=".39"/>
        <circle class="cls-5" cx="94.74" cy="25.11" r=".79"/>
        <circle class="cls-5" cx="93.81" cy="27.02" r=".33"/>
        <circle class="cls-5" cx="94.44" cy="26.63" r=".42"/>
        <circle class="cls-5" cx="95.33" cy="26.29" r=".53"/>
        <circle class="cls-5" cx="96.35" cy="26.21" r=".5"/>
        <circle class="cls-5" cx="95.82" cy="25.66" r=".27"/>
        <circle class="cls-5" cx="97.02" cy="26.46" r=".21"/>
        <circle class="cls-5" cx="97.34" cy="26.57" r=".1"/>
        <circle class="cls-5" cx="95.8" cy="25.1" r=".29"/>
        <circle class="cls-5" cx="94.87" cy="23.88" r=".46"/>
        <circle class="cls-5" cx="95.51" cy="24.32" r=".32"/>
        <circle class="cls-5" cx="95.56" cy="23.75" r=".26"/>
      </g>
      <path class="cls-4" d="M100.58,48.22c.73,4.66,4.73,20.59,21.76,20.59,9.76,0,15.32-5.52,18.43-10.61.97-.44,1.57-1.91,1.64-3.09.91-1.96,1.44-3.63,1.74-4.54"/>
    </g>
  </g>
</svg>